<?xml version="1.0" standalone="no"?>
<!DOCTYPE svg PUBLIC "-//W3C//DTD SVG 20010904//EN"
 "http://www.w3.org/TR/2001/REC-SVG-20010904/DTD/svg10.dtd">
<svg version="1.0" xmlns="http://www.w3.org/2000/svg"
 width="240.000000pt" height="240.000000pt" viewBox="0 0 240.000000 240.000000"
 preserveAspectRatio="xMidYMid meet">
<metadata>
Created by potrace 1.14, written by Peter Selinger 2001-2017
</metadata>
<g transform="translate(0.000000,240.000000) scale(0.100000,-0.100000)"
fill="#000000" stroke="none">
<path d="M1366 2304 c-38 -7 -73 -17 -78 -22 -5 -5 -8 -48 -6 -96 l3 -86 -50
0 c-126 -1 -336 -71 -371 -125 -34 -53 -11 -225 29 -212 22 7 77 101 99 169
12 37 26 69 32 71 8 3 10 -74 8 -255 -2 -239 -4 -259 -20 -254 -63 18 -154 28
-227 24 -69 -4 -90 -8 -106 -25 -18 -17 -19 -25 -11 -57 6 -20 22 -57 37 -81
30 -52 28 -51 183 -35 125 14 192 33 221 64 l24 25 -18 58 c-26 82 -24 138 8
202 54 106 133 211 159 211 2 0 2 -231 0 -514 l-2 -515 -81 -31 c-136 -52
-344 -96 -484 -101 -37 -2 -41 -3 -18 -6 29 -4 34 -9 43 -46 6 -23 13 -49 16
-59 3 -9 -20 -61 -51 -116 -51 -94 -133 -307 -121 -319 2 -3 19 12 37 33 18
22 96 102 173 179 135 135 251 229 469 379 l97 67 0 -347 0 -346 48 7 c26 4
51 10 56 15 12 11 46 139 46 172 0 15 4 29 9 32 10 7 31 -92 31 -147 0 -36 2
-39 23 -33 12 3 25 6 28 6 3 0 14 36 24 80 18 78 34 91 35 28 0 -45 18 -32 26
18 8 54 18 43 28 -29 11 -70 29 -54 41 36 6 42 13 78 16 81 3 3 11 -22 18 -55
23 -115 42 -32 21 96 -14 85 -68 188 -142 270 -81 90 -118 139 -152 196 -25
45 -26 49 -12 80 8 19 25 82 37 141 16 80 26 109 39 113 37 12 60 52 74 126
34 174 47 586 26 774 -8 68 -16 95 -32 112 -12 13 -27 23 -33 23 -6 0 -28 9
-50 20 -45 23 -99 24 -199 4z"/>
<path d="M734 1233 c-68 -7 -77 -25 -80 -156 -1 -75 -9 -136 -22 -184 -11 -40
-16 -70 -11 -67 17 10 48 81 64 145 9 35 22 71 28 80 16 21 60 43 119 59 100
27 77 58 -51 69 l-76 7 76 8 c42 5 116 7 163 5 47 -2 86 -1 86 2 0 17 -216 40
-296 32z"/>
</g>
</svg>
