<?xml version="1.0" standalone="no"?>
<!DOCTYPE svg PUBLIC "-//W3C//DTD SVG 20010904//EN"
 "http://www.w3.org/TR/2001/REC-SVG-20010904/DTD/svg10.dtd">
<svg version="1.0" xmlns="http://www.w3.org/2000/svg"
 width="512.000000pt" height="512.000000pt" viewBox="0 0 512.000000 512.000000"
 preserveAspectRatio="xMidYMid meet">
<metadata>
Created by potrace 1.14, written by Peter Selinger 2001-2017
</metadata>
<g transform="translate(0.000000,512.000000) scale(0.100000,-0.100000)"
fill="#000000" stroke="none">
<path d="M2275 4834 c-366 -37 -762 -146 -1070 -293 -515 -247 -909 -642
-1090 -1090 -90 -224 -120 -404 -112 -665 6 -194 25 -303 82 -471 132 -388
444 -759 858 -1022 346 -219 738 -356 1202 -419 156 -22 648 -25 784 -6 l84
12 111 -89 c373 -296 850 -530 1276 -627 129 -29 185 -30 227 -4 40 24 59 54
67 105 8 49 -11 87 -109 217 -38 51 -75 102 -82 113 -41 67 -134 212 -141 220
-35 42 -191 370 -207 436 -6 23 -1 29 39 53 89 52 253 181 350 275 296 288
459 563 543 921 30 129 43 416 24 551 -40 286 -148 549 -321 781 -173 232
-384 423 -652 590 -275 171 -727 330 -1104 389 -114 17 -192 22 -429 24 -159
2 -308 1 -330 -1z m384 -724 c322 -29 625 -172 817 -386 100 -112 154 -188
212 -301 119 -234 161 -438 140 -688 -13 -166 -45 -273 -134 -460 -114 -240
-346 -468 -595 -584 -368 -173 -827 -152 -1177 53 -243 142 -449 384 -545 640
-64 169 -73 207 -86 356 -21 256 37 513 165 735 98 167 237 321 373 410 212
139 392 203 626 225 44 4 82 8 85 8 3 1 56 -3 119 -8z"/>
<path d="M2390 3545 c-189 -53 -378 -200 -462 -361 -61 -115 -83 -209 -81
-349 0 -99 5 -134 26 -197 38 -120 90 -203 186 -299 71 -71 102 -94 181 -133
120 -59 224 -80 360 -72 118 7 182 24 290 77 69 34 103 60 176 133 78 79 98
105 137 186 59 125 72 181 70 320 -1 115 -10 160 -58 289 -56 151 -250 326
-430 387 -68 23 -100 28 -210 31 -94 2 -145 -1 -185 -12z"/>
</g>
</svg>
