<?xml version="1.0" standalone="no"?>
<!DOCTYPE svg PUBLIC "-//W3C//DTD SVG 20010904//EN"
 "http://www.w3.org/TR/2001/REC-SVG-20010904/DTD/svg10.dtd">
<svg version="1.0" xmlns="http://www.w3.org/2000/svg"
 width="300.000000pt" height="300.000000pt" viewBox="0 0 300.000000 300.000000"
 preserveAspectRatio="xMidYMid meet">
<metadata>
Created by potrace 1.11, written by Peter Selinger 2001-2013
</metadata>
<g transform="translate(0.000000,300.000000) scale(0.100000,-0.100000)"
fill="#000000" stroke="none">
<path d="M1351 2789 c-22 -24 -81 -131 -81 -149 0 -6 -7 -18 -15 -26 -13 -14
-18 -13 -41 5 -15 12 -35 21 -45 21 -10 0 -20 4 -23 9 -10 15 -75 23 -96 11
-11 -6 -37 -34 -59 -63 -21 -29 -47 -61 -57 -72 -11 -11 -39 -47 -64 -80 -55
-72 -68 -89 -101 -129 -29 -35 -89 -122 -89 -129 0 -3 -18 -35 -40 -71 -22
-36 -40 -70 -40 -75 0 -5 -4 -11 -9 -13 -5 -1 -17 -20 -27 -40 -78 -153 -134
-274 -134 -287 0 -6 -9 -30 -19 -54 -11 -23 -24 -58 -30 -77 -6 -19 -21 -69
-34 -110 -14 -41 -30 -97 -36 -125 -15 -61 -30 -121 -42 -159 -5 -16 -9 -40
-9 -54 0 -13 -11 -37 -24 -53 -14 -16 -38 -71 -55 -123 -16 -52 -34 -102 -39
-112 -32 -59 -73 -188 -78 -245 -5 -50 -3 -74 10 -100 15 -32 73 -79 97 -79
14 0 7 -100 -19 -283 l-19 -127 23 0 c20 0 22 6 27 87 6 105 27 286 32 292 3
2 31 -6 63 -18 33 -11 71 -21 86 -21 l27 0 -2 -165 c-2 -154 1 -188 18 -172 3
4 8 79 11 166 l5 159 84 7 c47 4 98 11 114 16 100 31 90 31 84 -4 -3 -18 -13
-86 -21 -152 -9 -66 -18 -137 -21 -159 -4 -30 -2 -37 8 -34 15 5 47 154 48
220 1 20 6 71 12 113 9 62 15 75 30 75 10 0 20 -4 23 -9 4 -5 25 -12 49 -16
23 -3 55 -9 70 -12 l29 -5 -4 -184 c-2 -130 0 -184 8 -184 16 0 24 82 24 239
l0 133 78 -6 c42 -4 108 -9 145 -13 l69 -6 -7 -31 c-4 -17 -11 -74 -16 -126
-5 -52 -12 -116 -15 -142 -4 -31 -3 -48 4 -48 6 0 13 8 16 18 13 43 36 218 36
273 0 59 1 61 23 55 12 -3 73 -6 134 -6 l113 0 25 -40 c14 -22 25 -44 25 -50
0 -6 8 -29 19 -53 10 -23 24 -58 31 -77 15 -40 29 -60 41 -60 11 0 12 43 1 56
-5 5 -24 47 -42 94 -18 47 -37 89 -42 94 -4 6 -8 17 -8 26 0 13 12 17 58 18
147 5 417 37 437 52 6 4 33 15 60 25 98 35 175 74 175 89 0 24 -37 29 -58 8
-11 -11 -46 -28 -78 -37 -33 -9 -74 -25 -92 -36 -19 -11 -38 -17 -43 -13 -6 3
-15 1 -22 -4 -7 -5 -43 -12 -82 -14 -38 -3 -55 -3 -37 -1 17 2 32 9 32 14 0 6
-9 7 -20 4 -12 -4 -20 -2 -20 4 0 6 14 10 30 9 17 -1 30 -6 30 -10 0 -4 11 -8
25 -8 14 0 25 5 25 10 0 6 14 10 30 10 32 0 137 49 110 51 -8 1 -4 4 10 8 15
4 28 3 32 -3 5 -7 8 -4 8 7 0 13 7 18 23 16 12 -1 39 8 60 20 36 22 48 41 26
41 -5 0 -7 -4 -4 -10 3 -5 -3 -10 -14 -10 -23 0 -28 15 -8 23 7 4 6 6 -4 6 -9
1 -19 -6 -23 -14 -10 -27 -23 -15 -18 17 4 29 3 31 -10 20 -12 -10 -22 -9 -49
3 -19 8 -29 14 -22 15 13 0 63 43 63 54 0 3 -22 6 -50 6 -27 0 -50 -4 -50 -10
0 -5 -5 -10 -11 -10 -5 0 -8 4 -5 9 4 5 2 11 -4 13 -5 1 -11 14 -12 28 -2 14
-7 28 -13 32 -6 4 -2 8 8 8 21 0 53 -28 43 -38 -4 -3 -11 0 -16 8 -5 8 -12 11
-15 8 -4 -4 -1 -16 7 -27 l15 -21 22 21 c18 17 20 24 10 35 -6 8 -9 17 -6 20
9 10 -19 34 -39 34 -15 0 -13 5 9 28 28 29 35 66 16 77 -5 4 -21 -6 -35 -22
-18 -21 -23 -23 -18 -8 7 17 6 18 -9 7 -8 -8 -13 -20 -10 -28 6 -17 -13 -19
-21 -1 -4 8 -5 7 -5 -3 2 -31 -1 -40 -16 -40 -8 0 -15 5 -15 11 0 5 5 7 10 4
17 -10 11 7 -7 20 -14 11 -13 13 12 19 15 4 34 14 42 22 8 8 18 12 22 9 5 -2
6 7 3 20 -6 31 -22 43 -22 17 0 -11 -6 -25 -14 -31 -11 -10 -16 -6 -24 16 -7
17 -11 21 -11 11 -1 -11 -9 -18 -22 -18 -20 0 -21 1 -5 22 32 44 86 127 86
133 0 14 -29 2 -43 -17 -8 -13 -25 -34 -38 -49 -13 -14 -37 -42 -53 -63 -39
-51 -172 -185 -221 -221 -22 -17 -45 -35 -52 -41 -19 -18 -156 -81 -188 -87
-28 -5 -31 -3 -43 34 -7 21 -12 43 -12 49 0 18 -43 102 -64 125 -12 12 -37 41
-57 63 -20 22 -60 52 -89 67 -47 24 -61 26 -114 20 -57 -6 -123 -39 -153 -77
-10 -13 -22 -169 -23 -299 l0 -67 -57 -7 c-46 -6 -59 -4 -69 9 -6 9 -18 16
-26 16 -17 0 -28 40 -28 102 0 24 -4 37 -10 33 -5 -3 -10 -33 -10 -65 l0 -59
-27 9 c-16 4 -47 17 -70 29 -24 11 -60 29 -80 39 -110 54 -113 57 -113 146 0
66 3 78 27 107 33 39 79 59 135 59 42 0 128 -26 128 -39 0 -4 10 -18 22 -31
26 -28 46 -61 85 -142 16 -32 34 -58 41 -58 16 0 6 42 -21 90 -11 19 -26 46
-33 60 -25 48 -88 113 -128 131 -58 26 -141 25 -193 -3 -61 -33 -84 -69 -97
-149 -6 -38 -14 -69 -17 -69 -4 0 -33 23 -63 51 l-56 51 0 75 c0 42 4 92 9
112 5 20 15 63 21 96 20 105 31 148 55 230 13 44 29 100 36 125 6 25 15 54 19
65 5 11 18 49 30 85 27 83 27 83 96 225 31 66 61 122 66 123 4 2 8 10 8 18 0
15 10 33 93 173 31 52 64 104 74 115 10 12 26 33 35 47 9 14 23 32 30 40 7 8
33 41 58 74 25 33 51 66 58 73 6 8 33 42 58 78 41 57 49 64 79 64 19 0 37 -4
40 -10 3 -5 14 -10 24 -10 10 0 51 -30 92 -67 41 -38 91 -82 110 -99 20 -17
44 -45 55 -62 10 -18 21 -32 25 -32 4 0 12 -13 19 -30 7 -16 16 -30 21 -30 5
0 9 -4 9 -10 0 -5 7 -18 14 -27 8 -10 24 -29 35 -43 14 -18 23 -22 31 -14 11
11 10 15 -20 184 -15 85 -39 179 -49 199 -6 11 -12 35 -13 54 -2 19 -7 33 -12
30 -5 -3 -7 10 -4 30 2 20 1 34 -3 31 -6 -3 -19 19 -19 33 0 6 69 -36 102 -63
l27 -22 -22 -15 -22 -15 28 -13 c29 -13 35 -25 15 -31 -7 -3 -2 -7 10 -10 15
-4 22 -2 22 8 0 8 5 14 10 14 6 0 10 5 10 10 0 5 -3 9 -7 9 -19 -3 -33 2 -33
11 0 17 18 11 47 -15 16 -15 21 -23 11 -19 -20 7 -34 -17 -24 -41 4 -12 11
-13 32 -5 21 8 31 7 46 -7 10 -9 16 -24 13 -32 -3 -8 -3 -12 0 -9 4 4 22 -7
41 -24 35 -32 45 -75 25 -107 -7 -10 -9 -4 -8 20 2 29 -1 33 -17 31 -17 -3
-18 -2 -7 12 11 13 11 19 1 31 -7 9 -19 14 -25 11 -7 -2 -24 9 -39 25 -28 30
-46 37 -46 19 0 -14 -18 -12 -23 3 -2 6 -3 5 -3 -3 1 -9 10 -14 24 -13 30 4
69 -32 55 -49 -8 -9 -7 -17 2 -25 8 -7 16 -9 20 -4 3 5 0 11 -6 13 -7 2 -7 8
3 15 9 8 19 9 28 2 13 -8 13 -10 1 -18 -8 -5 -18 -33 -21 -63 -7 -50 -3 -78 7
-50 7 18 23 15 23 -5 1 -16 2 -16 15 1 13 17 15 18 21 2 4 -9 4 -20 0 -23 -3
-4 -6 0 -6 8 0 8 -9 1 -20 -16 -11 -16 -20 -23 -20 -16 0 13 -2 13 -12 2 -10
-10 -10 -15 -1 -18 9 -3 9 -12 2 -29 -5 -14 -9 -61 -9 -104 0 -72 2 -80 28
-108 28 -30 103 -52 136 -39 9 4 18 -5 26 -26 6 -18 16 -39 21 -47 4 -8 16
-31 25 -50 8 -19 20 -42 25 -50 15 -26 59 -120 59 -128 0 -4 10 -27 22 -52 12
-25 25 -54 29 -65 58 -159 71 -185 97 -192 25 -6 29 -18 8 -30 -8 -4 -34 -26
-58 -48 -44 -42 -131 -105 -144 -105 -4 0 -21 -10 -38 -23 -17 -12 -49 -28
-71 -35 -22 -7 -49 -17 -60 -22 -72 -29 -119 -35 -280 -35 -141 0 -185 4 -255
22 -73 18 -129 30 -224 48 -10 2 -15 0 -10 -4 9 -8 155 -54 204 -64 14 -3 56
-13 95 -21 105 -24 314 -22 413 4 117 31 230 78 265 111 12 10 27 19 34 19 7
0 13 5 13 10 0 6 6 10 13 10 11 0 53 34 117 94 43 40 109 66 81 32 -10 -12 -8
-17 8 -25 13 -7 22 -8 26 -1 3 5 -2 10 -12 11 -10 0 -13 3 -6 5 16 7 58 -16
46 -25 -17 -11 -22 -99 -7 -112 8 -6 14 -20 14 -30 0 -11 7 -19 15 -19 18 0
20 -17 3 -22 -17 -6 23 -57 45 -58 13 0 17 -9 17 -40 0 -22 5 -40 10 -40 6 0
10 -18 10 -40 0 -22 -4 -40 -10 -40 -5 0 -10 -18 -10 -40 0 -36 3 -40 25 -40
23 0 25 -4 25 -40 0 -31 -4 -40 -17 -41 -15 0 -15 -2 2 -9 17 -7 16 -9 -10
-10 -29 -2 -29 -2 -5 -9 15 -4 26 -15 28 -29 2 -12 8 -22 13 -22 5 0 9 -18 9
-39 0 -22 5 -41 11 -43 16 -5 1 -48 -17 -48 -8 0 -14 -7 -14 -15 0 -8 4 -15 9
-15 11 0 24 -63 23 -120 l0 -45 7 45 c7 55 25 55 29 0 3 -40 3 -40 46 -40 23
0 48 -6 55 -12 11 -11 12 -5 7 32 -4 32 -3 38 3 20 5 -14 9 -37 10 -52 1 -26
0 -26 -52 -21 l-54 5 -6 -68 c-6 -64 2 -100 17 -75 13 21 32 11 45 -25 14 -38
27 -36 34 6 4 26 0 -11 -9 -88 -8 -58 4 -70 69 -66 64 5 97 12 96 22 -3 20 2
25 12 12 8 -12 9 -10 4 8 -6 20 -4 22 18 17 30 -8 36 5 44 93 3 34 10 65 14
68 12 7 11 150 0 211 -5 26 -15 86 -21 133 -7 47 -21 118 -31 157 -11 40 -19
86 -19 101 0 49 -167 231 -245 268 -28 13 -36 26 -65 117 -19 56 -37 107 -41
112 -3 6 -17 39 -29 75 -24 69 -43 113 -95 225 -18 39 -39 85 -47 103 -7 17
-16 32 -20 32 -5 0 -8 7 -8 16 0 14 -37 91 -50 104 -3 3 -12 19 -20 35 -8 17
-17 32 -20 35 -13 13 -60 91 -60 100 0 5 -4 10 -9 10 -5 0 -14 14 -21 30 -7
17 -16 30 -20 30 -4 0 -13 13 -19 28 -6 15 -22 40 -34 55 -12 14 -38 48 -57
74 -19 27 -37 50 -40 53 -3 3 -18 22 -34 44 -16 21 -55 65 -87 98 -33 33 -71
74 -85 92 -72 86 -138 147 -184 171 -19 10 -37 21 -40 24 -3 3 -19 14 -37 24
-42 23 -88 22 -112 -4z m49 -49 c-5 -10 -16 -24 -22 -32 -36 -37 -66 -97 -66
-131 0 -20 5 -37 11 -37 6 0 7 -3 4 -7 -4 -3 -18 4 -32 17 -22 20 -23 26 -11
39 7 9 26 41 41 71 15 29 37 66 48 82 22 30 43 28 27 -2z m60 -151 c0 -4 -7
-9 -15 -13 -10 -3 -14 1 -13 12 1 9 0 26 -1 37 -2 18 -4 17 -27 -10 -18 -20
-22 -23 -15 -8 6 12 16 25 21 28 6 3 10 15 10 26 0 14 -4 18 -12 13 -8 -5 -7
-1 1 10 14 16 16 14 33 -36 9 -29 18 -56 18 -59z m-60 61 c0 -5 -5 -10 -11
-10 -5 0 -7 5 -4 10 3 6 8 10 11 10 2 0 4 -4 4 -10z m233 -65 c-7 -21 -13 -19
-13 6 0 11 4 18 10 14 5 -3 7 -12 3 -20z m-149 -92 c9 -37 12 -69 7 -72 -4 -3
-12 -16 -16 -29 -4 -13 -9 -21 -12 -18 -3 3 0 19 7 36 11 25 10 39 0 73 -8 23
-17 47 -22 53 -8 11 -1 24 12 24 4 0 15 -30 24 -67z m-104 -11 c-14 -5 -40 17
-40 34 0 10 8 7 26 -8 14 -13 20 -24 14 -26z m116 -124 c-19 -27 -21 -19 -4
18 7 14 14 21 16 15 2 -6 -4 -21 -12 -33z m397 -27 c17 -25 37 -52 44 -59 7
-7 13 -22 13 -33 0 -12 4 -17 11 -13 8 4 9 -1 4 -17 -5 -18 -4 -20 4 -9 5 8
13 11 18 7 4 -5 2 -12 -5 -16 -7 -4 -11 -14 -9 -22 2 -8 2 -10 -1 -6 -2 4 -9
1 -16 -8 -10 -14 -14 -13 -33 13 l-21 29 24 -3 c13 -1 24 2 24 7 0 8 -15 13
-32 10 -4 0 -3 11 2 25 11 28 5 48 -12 38 -6 -4 -8 -2 -4 4 3 6 2 13 -4 17 -6
4 -10 -5 -10 -22 0 -20 -3 -24 -9 -14 -7 11 -9 11 -14 0 -4 -10 -6 -9 -6 4 -1
9 4 17 10 17 6 0 -6 15 -25 34 -20 18 -36 36 -36 40 0 8 24 3 31 -7 3 -5 9 -1
12 8 4 9 3 13 -3 10 -6 -3 -10 -2 -10 3 0 6 -10 8 -22 5 -23 -5 -23 -5 -3 10
24 19 34 12 78 -52z m-54 -106 c25 -41 53 -84 63 -95 10 -10 18 -24 18 -30 0
-5 4 -10 8 -10 4 0 21 -28 36 -62 16 -35 32 -65 35 -68 4 -3 15 -22 24 -42 10
-20 23 -43 30 -50 18 -19 77 -118 77 -129 0 -5 5 -9 10 -9 6 0 10 -6 10 -14 0
-8 4 -16 8 -18 15 -6 62 -75 62 -91 0 -10 3 -17 8 -17 10 0 32 -74 39 -132 5
-39 3 -49 -11 -54 -24 -9 -80 24 -93 55 -6 14 -29 73 -51 131 -51 130 -104
251 -124 282 -8 12 -28 52 -43 88 -35 80 -50 99 -67 82 -18 -18 -45 -15 -88 9
-41 23 -50 46 -50 122 0 38 34 127 48 127 4 0 27 -34 51 -75z m64 5 c-3 -12
-8 -19 -11 -16 -5 6 5 36 12 36 2 0 2 -9 -1 -20z m101 -55 c-4 -8 -1 -15 4
-15 6 0 22 -19 36 -42 19 -32 22 -45 14 -55 -6 -8 -8 -16 -4 -20 3 -3 6 -1 6
5 0 7 8 12 18 12 16 -1 16 -1 0 -11 -17 -9 -16 -12 5 -41 16 -22 18 -32 10
-35 -18 -6 -16 -40 1 -46 8 -3 16 -1 18 5 6 18 38 -57 38 -88 0 -26 1 -27 14
-9 13 18 14 18 20 -3 4 -12 12 -22 17 -22 13 0 11 12 -6 34 -17 23 -19 36 -6
36 5 0 13 -10 17 -22 3 -13 14 -32 23 -42 9 -11 11 -16 5 -13 -7 4 -15 -1 -18
-11 -3 -9 -12 -27 -20 -40 -12 -21 -14 -21 -20 -5 -4 10 -2 19 3 21 6 2 11 8
11 14 0 6 -9 3 -20 -7 -17 -15 -20 -16 -20 -3 0 9 -16 40 -37 69 -20 30 -36
62 -35 72 0 9 -4 15 -9 11 -6 -3 -7 5 -4 23 5 21 4 24 -4 13 -9 -13 -12 -13
-23 -1 -7 8 -8 11 -2 8 13 -8 23 12 17 31 -4 10 -9 8 -20 -5 -13 -16 -13 -16
-2 7 15 29 13 111 -3 125 -7 7 -9 2 -4 -17 5 -23 3 -28 -13 -28 -26 0 -47 26
-27 33 11 4 13 1 10 -11 -5 -14 -4 -14 4 -2 6 8 8 19 4 24 -8 13 -11 48 -5 59
8 13 13 7 7 -8z m128 -199 c11 -23 25 -44 30 -47 6 -4 6 -9 -1 -13 -6 -4 -15
4 -21 19 -8 21 -15 25 -33 21 -12 -3 -16 -3 -9 0 17 8 15 35 -5 64 -16 24 -16
24 1 11 9 -8 27 -33 38 -55z m39 -99 c-8 -8 -11 -7 -11 4 0 9 3 19 7 23 4 4 9
2 11 -4 3 -7 -1 -17 -7 -23z m83 -113 c3 -8 2 -23 -4 -33 -5 -10 -6 -22 -1
-27 4 -5 12 -21 19 -36 9 -21 8 -27 -4 -32 -9 -3 -12 -1 -9 4 8 13 -4 50 -16
50 -6 0 -7 -4 -4 -10 3 -5 4 -10 1 -10 -3 0 -12 13 -21 30 -13 26 -14 29 0 24
8 -4 15 -2 15 4 0 6 -5 12 -12 14 -9 3 -8 9 2 21 19 21 26 21 34 1z m26 -73
c0 -11 -4 -9 -14 4 -8 11 -12 24 -9 28 7 11 23 -12 23 -32z m20 -31 c0 -5 -4
-10 -10 -10 -5 0 -10 5 -10 10 0 6 5 10 10 10 6 0 10 -4 10 -10z m16 -53 c8 3
14 0 14 -6 0 -6 -7 -11 -15 -11 -8 0 -15 -4 -15 -10 0 -5 4 -10 9 -10 12 0 2
-38 -12 -47 -6 -4 -8 4 -5 21 4 18 1 26 -8 26 -8 0 -14 4 -14 9 0 5 -3 16 -6
25 -3 9 -1 16 5 16 6 0 11 -7 11 -15 0 -8 4 -15 9 -15 4 0 7 10 6 23 -1 12 0
14 2 5 2 -10 10 -15 19 -11z m67 -172 c-5 -28 -4 -29 13 -15 16 14 17 13 11
-2 -3 -10 -3 -18 2 -18 5 0 12 -15 15 -34 4 -19 10 -36 15 -38 4 -2 1 -19 -6
-38 -13 -30 -16 -32 -25 -17 -5 10 -7 23 -4 30 2 7 5 3 6 -8 1 -20 1 -20 9 0
11 27 2 62 -11 43 -6 -9 -7 -6 -3 9 8 29 -41 85 -56 63 -13 -18 -8 -5 10 32
11 22 12 33 2 50 l-12 23 5 -22 c4 -23 -15 -48 -27 -36 -4 3 -7 -12 -7 -35 0
-40 -13 -62 -24 -43 -4 5 -2 12 4 16 5 3 10 18 10 32 0 14 10 43 22 65 l22 39
18 -33 c11 -21 15 -43 11 -63z m83 -190 c-5 -18 -2 -25 9 -25 11 0 15 -10 15
-35 0 -19 4 -35 9 -35 5 0 11 -13 13 -29 3 -17 0 -27 -5 -24 -5 3 -13 -1 -18
-8 -6 -9 -7 -1 -2 20 5 27 2 37 -12 48 -13 9 -14 13 -5 13 10 0 8 6 -6 23 -11
12 -26 31 -34 41 -14 17 -13 18 8 12 16 -6 22 -3 22 8 0 9 3 16 6 16 3 0 3
-11 0 -25z m-59 -17 c-3 -8 -6 -5 -6 6 -1 11 2 17 5 13 3 -3 4 -12 1 -19z
m-17 3 c0 -20 -13 -41 -21 -35 -15 9 -10 44 6 44 8 0 15 -4 15 -9z m40 -56
c-7 -8 -18 -15 -24 -14 -7 0 -6 2 2 6 6 2 12 14 12 26 0 16 3 18 12 9 8 -8 8
-15 -2 -27z m172 -115 c13 -11 16 -20 9 -20 -13 0 -41 24 -41 34 0 11 11 6 32
-14z m-52 -117 c0 -13 -4 -23 -10 -23 -5 0 -10 17 -10 39 0 21 -2 54 -5 72 -3
22 0 16 10 -16 8 -27 15 -60 15 -72z m89 70 c-10 -11 -10 -14 -1 -9 6 4 12 2
12 -3 0 -6 -7 -11 -15 -11 -8 0 -15 9 -15 20 0 12 7 20 16 20 14 0 15 -2 3
-17z m-29 -13 c0 -14 7 -20 24 -20 13 0 26 5 28 11 2 6 12 1 23 -11 16 -18 16
-20 2 -14 -11 4 -17 1 -18 -10 -3 -29 -4 -34 -11 -42 -5 -4 -8 -2 -8 4 0 7 -3
11 -7 11 -18 -3 -33 2 -33 10 0 6 9 8 20 6 11 -2 20 0 20 6 0 5 -4 10 -10 10
-5 1 -15 2 -21 3 -19 2 -37 56 -19 56 6 0 10 -9 10 -20z m-123 -42 c-3 -8 -6
-5 -6 6 -1 11 2 17 5 13 3 -3 4 -12 1 -19z m-2259 -17 c-1 -16 -5 -28 -9 -25
-4 2 -5 -21 -4 -51 2 -30 -1 -55 -6 -55 -12 0 -11 107 1 115 6 3 10 15 10 26
0 10 2 19 5 19 3 0 4 -13 3 -29z m970 -32 c22 -12 51 -31 64 -43 35 -32 97
-116 114 -156 3 -8 10 -24 14 -35 5 -11 11 -36 14 -56 6 -34 5 -36 -31 -47
-21 -5 -52 -13 -70 -17 l-31 -6 -5 53 c-8 74 -18 117 -30 125 -9 5 -6 -76 5
-152 2 -11 -3 -20 -12 -21 -8 -1 -62 -7 -120 -14 -58 -6 -117 -13 -132 -15
l-28 -4 0 150 c0 115 4 159 15 183 34 70 152 98 233 55z m1551 -7 c-5 -2 -9
-8 -9 -14 0 -6 6 -8 13 -5 7 3 19 -4 25 -14 8 -12 8 -19 2 -19 -5 0 -10 4 -10
9 0 5 -9 11 -20 14 -14 3 -20 14 -20 31 0 23 2 25 14 14 8 -7 10 -14 5 -16z
m-739 4 c0 -2 -13 -6 -30 -8 -16 -3 -30 -1 -30 4 0 4 14 8 30 8 17 0 30 -2 30
-4z m675 -73 c-12 -11 -17 -11 -35 4 -34 29 -25 45 14 26 29 -14 32 -18 21
-30z m-769 20 c0 -10 -8 -23 -16 -30 -13 -11 -12 -12 8 -13 12 0 22 -4 22 -10
0 -15 -40 -12 -46 4 -3 8 2 26 11 40 20 31 23 32 21 9z m664 7 c0 -5 -4 -10
-10 -10 -5 0 -10 5 -10 10 0 6 5 10 10 10 6 0 10 -4 10 -10z m-613 -40 c10
-20 11 -21 16 -4 4 16 5 15 6 -3 0 -13 -4 -23 -9 -23 -6 0 -20 -9 -32 -20 -12
-11 -29 -20 -37 -20 -14 0 -14 1 -1 10 11 7 12 10 2 10 -8 0 -16 -9 -19 -20
-3 -11 -9 -20 -14 -20 -4 0 -13 9 -19 20 -7 14 -7 20 0 20 5 0 10 -8 10 -17 0
-15 2 -16 9 -3 6 8 7 18 5 22 -3 4 11 8 31 8 20 0 34 4 31 9 -4 5 -1 11 6 13
7 3 9 12 5 22 -4 9 -11 14 -17 11 -5 -3 -10 -1 -10 5 0 18 24 6 37 -20z m613
4 c0 -8 -4 -12 -10 -9 -5 3 -10 10 -10 16 0 5 5 9 10 9 6 0 10 -7 10 -16z
m219 -34 c6 0 11 -12 11 -27 0 -21 -3 -24 -9 -13 -6 8 -7 18 -4 23 3 5 -12 8
-36 5 -36 -3 -40 -2 -25 9 10 7 12 13 6 13 -7 0 -12 7 -12 16 0 13 5 12 29 -5
16 -12 34 -21 40 -21z m-934 1 c-3 -6 -11 -8 -17 -5 -6 4 -5 9 3 15 16 10 23
4 14 -10z m210 0 c-3 -6 -11 -11 -17 -11 -6 0 -6 6 2 15 14 17 26 13 15 -4z
m598 -3 c4 -13 1 -26 -6 -30 -8 -5 -7 -8 6 -8 9 0 17 -4 17 -10 0 -5 -7 -10
-15 -10 -14 0 -19 11 -16 37 1 6 -3 14 -9 18 -15 9 -12 25 4 25 7 0 16 -10 19
-22z m-2501 -10 c-7 -7 -12 -8 -12 -2 0 14 12 26 19 19 2 -3 -1 -11 -7 -17z
m68 -18 c5 0 7 7 4 15 -9 22 4 18 16 -6 13 -23 3 -82 -11 -73 -6 4 -6 11 1 19
7 8 10 22 7 32 -4 15 -6 14 -13 -6 -7 -23 -8 -24 -15 -5 -4 10 -7 30 -7 44 1
23 1 23 5 3 2 -13 8 -23 13 -23z m2369 -22 c1 -10 -3 -18 -8 -18 -14 0 -22 29
-14 58 l7 27 7 -25 c4 -14 7 -33 8 -42z m-772 28 c-3 -8 -1 -17 6 -20 7 -3 1
-3 -12 0 -20 5 -23 3 -18 -10 4 -10 3 -15 -3 -11 -6 3 -10 1 -10 -4 0 -6 4
-11 10 -11 5 0 7 -7 3 -16 -3 -8 -12 -13 -21 -9 -8 3 -22 0 -31 -7 -14 -12
-15 -11 -2 5 8 10 21 15 28 12 9 -3 13 0 10 7 -2 7 -11 12 -18 10 -8 -2 2 13
20 32 38 39 46 44 38 22z m877 -28 c1 -20 7 -23 53 -26 43 -2 51 -6 46 -19 -5
-12 -3 -14 8 -8 10 6 11 5 3 -4 -11 -12 -7 -71 6 -71 4 0 10 -7 14 -15 4 -12
2 -13 -14 -2 -11 6 -20 17 -20 24 0 7 -5 12 -12 11 -11 -3 -14 2 -17 36 -1 10
-12 14 -33 13 -20 -1 -33 3 -33 10 0 6 -3 15 -7 19 -5 4 -8 0 -8 -10 0 -14 -2
-15 -14 -4 -12 11 -12 14 0 21 8 4 14 20 14 34 0 32 12 23 14 -9z m53 26 c-3
-3 -12 -4 -19 -1 -8 3 -5 6 6 6 11 1 17 -2 13 -5z m-2607 -23 c-12 -24 -13
-31 -1 -31 5 0 12 10 15 23 7 21 7 21 16 2 12 -27 12 -37 1 -31 -5 4 -11 1
-13 -5 -6 -18 -38 2 -38 25 0 24 8 36 22 36 5 0 4 -9 -2 -19z m170 -52 c0 -5
4 -8 9 -4 5 3 13 1 16 -5 4 -6 3 -10 -2 -9 -20 3 -27 -2 -13 -11 22 -14 6 -22
-21 -11 -13 5 -18 10 -11 10 6 1 12 6 12 11 0 7 -8 7 -22 -1 -19 -9 -21 -9
-10 2 6 7 12 20 12 29 0 13 -1 13 -10 0 -8 -11 -9 -9 -6 10 3 14 5 26 5 28 2
6 41 -39 41 -49z m1525 31 c-3 -5 -11 -10 -16 -10 -6 0 -7 5 -4 10 3 6 11 10
16 10 6 0 7 -4 4 -10z m-105 -25 c-7 -9 -15 -13 -19 -10 -3 3 1 10 9 15 21 14
24 12 10 -5z m194 0 c-4 -8 -7 -15 -9 -15 -2 0 -5 7 -9 15 -3 9 0 15 9 15 9 0
12 -6 9 -15z m633 -17 c-3 -7 -5 -2 -5 12 0 14 2 19 5 13 2 -7 2 -19 0 -25z
m40 -5 c-3 -10 -5 -4 -5 12 0 17 2 24 5 18 2 -7 2 -21 0 -30z m-2399 -2 c26
-22 28 -31 7 -31 -8 0 -15 7 -15 15 0 13 -4 14 -21 5 -19 -11 -20 -10 -9 9 13
25 12 25 38 2z m1702 9 c0 -5 -2 -10 -4 -10 -3 0 -8 5 -11 10 -3 6 -1 10 4 10
6 0 11 -4 11 -10z m84 2 c2 -4 -7 -8 -22 -9 -24 -2 -24 -1 -7 7 11 5 21 9 22
9 1 1 4 -3 7 -7z m76 -7 c-14 -17 -30 -20 -30 -4 0 5 4 8 9 4 5 -3 12 -1 16 5
3 5 9 10 12 10 3 0 0 -7 -7 -15z m-1677 -38 c-4 -6 0 -8 9 -5 8 4 33 -4 54
-17 l39 -24 -30 1 c-16 1 -39 -2 -50 -7 -17 -7 -16 -5 4 13 l24 22 -31 0 c-18
0 -32 -4 -32 -9 0 -14 -39 -9 -44 6 -3 7 -2 13 3 13 5 0 12 11 15 25 6 23 7
24 26 8 10 -9 16 -21 13 -26z m1487 39 c0 -3 -4 -8 -10 -11 -5 -3 -10 -1 -10
4 0 6 5 11 10 11 6 0 10 -2 10 -4z m133 -18 c-5 -9 -20 -11 -48 -7 l-40 6 43
2 c24 0 42 6 42 13 0 6 3 9 6 5 3 -3 2 -11 -3 -19z m-1893 -26 c0 -7 7 -20 15
-28 8 -8 12 -21 9 -29 -9 -23 -23 -18 -17 5 4 14 1 20 -7 18 -9 -2 -14 11 -16
37 -2 28 0 35 6 25 5 -8 10 -21 10 -28z m1590 29 c0 -13 -43 -39 -57 -34 -10
4 -10 7 0 18 8 9 14 10 19 2 5 -8 9 -5 14 6 6 18 24 24 24 8z m1050 -11 c0 -5
-2 -10 -4 -10 -3 0 -8 5 -11 10 -3 6 -1 10 4 10 6 0 11 -4 11 -10z m-920 -31
c0 -12 5 -19 13 -16 6 2 12 10 12 18 0 8 9 13 20 12 11 -1 23 4 27 10 6 9 8 9
8 -1 0 -9 10 -11 38 -7 l37 6 -39 -21 c-43 -22 -50 -24 -42 -12 2 4 -4 8 -15
8 -12 0 -18 -5 -15 -13 3 -7 0 -15 -6 -19 -6 -4 -8 -3 -5 3 4 7 -8 9 -34 8
-22 -1 -42 2 -45 7 -3 5 -22 6 -42 2 -20 -4 -34 -4 -31 0 4 4 16 8 27 11 11 2
33 10 49 18 32 17 43 14 43 -14z m276 16 c-11 -8 -25 -15 -30 -15 -6 0 -3 -7
8 -15 18 -13 18 -14 -2 -12 -27 2 -21 29 9 44 32 17 38 16 15 -2z m506 -10
c12 -39 9 -105 -6 -105 -9 0 -15 16 -19 48 -2 26 -8 54 -11 64 -6 12 -2 16 11
15 10 -1 21 -11 25 -22z m-2427 5 c3 -5 2 -10 -4 -10 -5 0 -13 5 -16 10 -3 6
-2 10 4 10 5 0 13 -4 16 -10z m46 -9 c7 11 9 11 9 -2 0 -26 -26 -31 -27 -5 0
11 1 15 4 7 5 -11 7 -11 14 0z m2482 -9 c10 -11 13 -23 8 -31 -13 -20 -33 -3
-25 21 4 13 2 19 -6 16 -6 -2 -11 -7 -11 -11 1 -4 1 -16 1 -28 0 -11 4 -18 9
-15 10 7 25 -24 16 -33 -3 -3 -10 1 -15 9 -6 8 -10 11 -11 5 -1 -5 -5 5 -9 24
-14 58 9 81 43 43z m-1098 -2 c-3 -5 -11 -10 -16 -10 -6 0 -7 5 -4 10 3 6 11
10 16 10 6 0 7 -4 4 -10z m-1285 -56 c0 -20 -28 -24 -59 -8 -38 19 -47 32 -27
40 9 3 13 11 10 16 -4 6 12 -1 35 -14 22 -12 41 -28 41 -34z m1370 36 c0 -5
-4 -10 -10 -10 -5 0 -10 5 -10 10 0 6 5 10 10 10 6 0 10 -4 10 -10z m487 -12
c-3 -8 -6 -5 -6 6 -1 11 2 17 5 13 3 -3 4 -12 1 -19z m-17 2 c0 -5 -5 -10 -11
-10 -5 0 -7 5 -4 10 3 6 8 10 11 10 2 0 4 -4 4 -10z m-1720 -4 c0 -3 -4 -8
-10 -11 -5 -3 -10 -1 -10 4 0 6 5 11 10 11 6 0 10 -2 10 -4z m82 -16 l33 -21
-30 6 c-81 17 -80 16 -64 26 20 12 24 12 61 -11z m988 16 c0 -3 -4 -8 -10 -11
-5 -3 -10 -1 -10 4 0 6 5 11 10 11 6 0 10 -2 10 -4z m190 -15 c0 -4 -18 -7
-40 -7 -38 1 -53 10 -28 18 16 6 68 -3 68 -11z m130 9 c-19 -13 -30 -13 -30 0
0 6 10 10 23 10 18 0 19 -2 7 -10z m253 3 c-7 -2 -21 -2 -30 0 -10 3 -4 5 12
5 17 0 24 -2 18 -5z m-133 -7 c0 -2 -7 -7 -16 -10 -8 -3 -12 -2 -9 4 6 10 25
14 25 6z m170 -6 c0 -5 -4 -10 -10 -10 -5 0 -10 5 -10 10 0 6 5 10 10 10 6 0
10 -4 10 -10z m-2009 -57 c11 -13 19 -28 17 -33 -6 -19 -44 22 -56 60 -11 32
-10 33 3 15 8 -11 24 -30 36 -42z m2104 47 c3 -5 -3 -10 -14 -10 -12 0 -21 5
-21 10 0 6 6 10 14 10 8 0 18 -4 21 -10z m581 -17 c-6 -6 -36 9 -36 18 0 5 9
4 20 -3 10 -7 18 -14 16 -15z m-2206 1 c0 -2 -7 -4 -15 -4 -8 0 -15 4 -15 10
0 5 7 7 15 4 8 -4 15 -8 15 -10z m830 6 c-8 -5 -24 -9 -35 -9 -16 1 -16 2 5 9
35 11 48 11 30 0z m180 0 c-13 -8 -13 -10 2 -10 9 0 20 5 23 10 3 6 11 10 16
10 6 0 8 -4 5 -9 -3 -4 7 -6 22 -4 26 5 26 4 7 -9 -21 -16 -28 -17 -120 -19
-51 -1 -55 -2 -25 -8 l35 -7 -45 -7 c-74 -12 -180 -17 -145 -8 17 5 50 9 75
11 34 1 40 3 25 10 -17 6 -14 9 17 15 21 4 40 7 43 6 3 -1 13 5 21 14 9 8 25
15 37 15 18 0 19 -2 7 -10z m151 1 c-8 -5 -20 -7 -28 -4 -21 8 -15 13 15 13
20 0 23 -3 13 -9z m320 0 c-8 -5 -20 -7 -28 -4 -21 8 -15 13 15 13 20 0 23 -3
13 -9z m-1910 -18 c13 -16 12 -17 -3 -4 -17 13 -22 21 -14 21 2 0 10 -8 17
-17z m2369 7 c0 -5 -7 -10 -16 -10 -8 0 -12 5 -9 10 3 6 10 10 16 10 5 0 9 -4
9 -10z m-2317 -25 c-3 -10 1 -15 12 -15 9 0 13 5 10 10 -4 6 5 5 19 -2 14 -6
26 -15 26 -20 0 -12 -27 -10 -66 7 -30 12 -33 17 -22 29 16 17 29 11 21 -9z
m272 5 c47 -8 46 -9 -15 -3 -36 3 -82 6 -103 8 -21 2 -41 6 -45 9 -7 8 93 -1
163 -14z m835 10 c-8 -5 -19 -10 -25 -10 -5 0 -3 5 5 10 8 5 20 10 25 10 6 0
3 -5 -5 -10z m545 0 c-3 -5 -14 -11 -23 -11 -9 -1 -4 -4 13 -8 27 -6 26 -7
-22 -17 -43 -8 -53 -8 -58 3 -3 9 1 13 13 11 9 -1 28 5 42 15 27 19 45 22 35
7z m113 -1 c9 -1 -1 -5 -23 -9 -22 -4 -44 -5 -49 -2 -13 7 25 22 42 16 8 -2
21 -5 30 -5z m793 -6 c11 -15 11 -16 0 -6 -7 6 -20 9 -29 6 -10 -4 -13 -2 -8
5 10 17 21 15 37 -5z m58 -50 c1 -18 -3 -33 -9 -33 -5 0 -9 3 -9 8 1 4 1 23
-1 42 -1 29 -3 32 -10 15 -8 -19 -9 -19 -9 2 -1 26 21 36 31 14 4 -9 7 -31 7
-48z m-113 43 c22 -23 17 -26 -16 -10 -16 9 -30 17 -30 20 0 10 33 3 46 -10z
m-1457 -1 c-3 -2 -30 -7 -60 -9 -30 -2 -80 -7 -111 -10 -139 -14 -168 -16
-168 -8 0 4 30 9 68 11 37 1 85 6 107 11 44 9 171 13 164 5z m1370 -43 c1 -7
-3 -10 -9 -7 -5 3 -10 18 -9 33 0 24 1 25 9 7 5 -11 9 -26 9 -33z m161 -4 c0
-12 -20 -9 -34 5 -21 21 -8 38 15 19 10 -9 19 -20 19 -24z m-1040 22 c13 -8
13 -10 -2 -10 -9 0 -20 5 -23 10 -8 13 5 13 25 0z m-1440 -4 c0 -3 -4 -8 -10
-11 -5 -3 -10 -1 -10 4 0 6 5 11 10 11 6 0 10 -2 10 -4z m1397 -2 c-3 -3 -12
-4 -19 -1 -8 3 -5 6 6 6 11 1 17 -2 13 -5z m333 -4 c-14 -4 -41 -8 -60 -8
l-35 1 40 7 c57 10 87 10 55 0z m-1874 -27 c-7 -7 -26 7 -26 19 0 6 6 6 15 -2
9 -7 13 -15 11 -17z m184 17 c0 -5 -7 -10 -15 -10 -8 0 -15 5 -15 10 0 6 7 10
15 10 8 0 15 -4 15 -10z m54 1 c3 -5 24 -9 47 -9 23 -1 44 -3 47 -6 3 -3 -24
-6 -60 -6 -51 0 -65 3 -65 15 0 16 22 21 31 6z m936 -1 c11 -7 5 -8 -20 -4
-43 8 -51 14 -19 14 13 0 31 -5 39 -10z m315 0 c-28 -12 -37 -12 -30 0 3 6 16
10 28 9 21 0 21 -1 2 -9z m-1086 -4 c-2 -2 -17 -6 -34 -10 -22 -5 -26 -4 -15
4 14 9 59 15 49 6z m2158 -33 c7 -6 9 -13 4 -15 -10 -4 -23 -68 -13 -68 5 0
13 5 20 12 9 9 12 3 12 -28 0 -26 -3 -34 -9 -25 -5 7 -13 11 -18 8 -9 -6 -27
48 -38 117 -6 37 -6 39 12 25 10 -8 24 -19 30 -26z m-2502 -1 c-21 -5 -45 5
-45 17 0 5 13 4 31 -2 21 -8 26 -13 14 -15z m973 21 c-16 -2 -40 -2 -55 0 -16
2 -3 4 27 4 30 0 43 -2 28 -4z m-528 -23 c-8 -5 -19 -10 -25 -10 -5 0 -3 5 5
10 8 5 20 10 25 10 6 0 3 -5 -5 -10z m1145 0 c-6 -10 -59 -19 -165 -26 -106
-7 -100 3 11 20 103 15 161 17 154 6z m-1535 -11 c0 -5 6 -7 13 -3 9 5 9 4 0
-6 -9 -10 -15 -10 -28 4 -15 14 -15 16 -1 16 9 0 16 -5 16 -11z m2560 1 c0 -5
-2 -10 -4 -10 -3 0 -8 5 -11 10 -3 6 -1 10 4 10 6 0 11 -4 11 -10z m-2234 -9
c-3 -5 -36 -12 -73 -16 -36 -4 -73 -10 -81 -13 -10 -3 -13 -1 -8 6 4 7 24 12
44 13 20 1 48 5 62 9 35 11 62 12 56 1z m-201 -29 c-2 -2 -19 -1 -37 3 -28 7
-30 9 -13 15 18 6 60 -9 50 -18z m1113 11 c-10 -2 -28 -2 -40 0 -13 2 -5 4 17
4 22 1 32 -1 23 -4z m1282 -11 c0 -5 -7 -9 -15 -9 -8 0 -15 4 -15 9 0 4 7 8
15 8 8 0 15 -4 15 -8z m43 -81 c-1 -43 -15 -111 -25 -117 -5 -3 -7 17 -6 45 2
28 6 51 9 51 4 0 3 17 -2 38 -12 54 -11 59 8 33 9 -13 16 -35 16 -50z m-185
-11 c4 0 7 -25 7 -55 0 -58 -14 -78 -16 -22 -1 17 -2 50 -4 72 -1 22 0 32 2
23 3 -10 8 -18 11 -18z m124 -2 c-8 -8 -9 -4 -5 13 4 13 8 18 11 10 2 -7 -1
-18 -6 -23z m25 10 c-3 -8 -6 -5 -6 6 -1 11 2 17 5 13 3 -3 4 -12 1 -19z
m-177 -10 c0 -18 -2 -20 -9 -8 -6 8 -7 18 -5 22 9 14 14 9 14 -14z m105 -44
c-4 -54 -15 -72 -15 -23 0 19 -3 44 -6 57 -5 17 -3 21 9 17 11 -5 14 -19 12
-51z m35 15 c0 -6 -4 -7 -10 -4 -5 3 -10 11 -10 16 0 6 5 7 10 4 6 -3 10 -11
10 -16z m27 -11 c-3 -7 -5 -2 -5 12 0 14 2 19 5 13 2 -7 2 -19 0 -25z m-50
-74 c-3 -3 -12 -4 -19 -1 -8 3 -5 6 6 6 11 1 17 -2 13 -5z m53 -21 c0 -21 -3
-24 -9 -14 -5 8 -7 20 -4 28 8 21 13 15 13 -14z m-47 -44 c5 -3 2 -9 -7 -12
-12 -5 -16 0 -16 15 0 12 3 17 8 12 4 -5 11 -12 15 -15z"/>
<path d="M1860 2329 c0 -16 6 -26 15 -26 19 0 18 7 0 31 -14 19 -15 19 -15 -5z"/>
<path d="M1930 2185 c0 -5 4 -16 9 -23 6 -11 10 -10 15 4 3 9 4 19 1 22 -3 3
-5 -1 -5 -9 0 -11 -2 -11 -10 1 -5 8 -10 11 -10 5z"/>
<path d="M1777 2207 c-8 -21 8 -39 29 -35 11 2 20 13 22 26 3 18 -1 22 -21 22
-14 0 -27 -6 -30 -13z"/>
<path d="M2050 2024 c1 -19 27 -56 33 -47 4 6 -2 21 -13 33 -11 13 -20 19 -20
14z"/>
<path d="M2110 1895 c0 -15 7 -33 15 -41 8 -9 15 -11 15 -5 0 5 -4 12 -9 15
-5 3 -7 15 -4 25 3 10 0 22 -6 25 -7 5 -11 -3 -11 -19z"/>
<path d="M2166 1814 c-8 -20 -4 -25 11 -16 7 4 9 13 4 21 -6 10 -10 9 -15 -5z"/>
<path d="M2230 1750 c0 -5 5 -10 10 -10 6 0 10 5 10 10 0 6 -4 10 -10 10 -5 0
-10 -4 -10 -10z"/>
<path d="M2793 658 c1 -15 6 -23 11 -18 4 4 4 16 -2 26 -9 16 -10 14 -9 -8z"/>
<path d="M370 636 c0 -9 5 -16 10 -16 6 0 10 4 10 9 0 6 -4 13 -10 16 -5 3
-10 -1 -10 -9z"/>
<path d="M1818 623 c7 -3 16 -2 19 1 4 3 -2 6 -13 5 -11 0 -14 -3 -6 -6z"/>
<path d="M280 571 c0 -9 24 -21 41 -21 5 0 9 4 9 10 0 5 -7 7 -15 4 -8 -4 -15
-1 -15 5 0 6 -4 11 -10 11 -5 0 -10 -4 -10 -9z"/>
<path d="M2733 395 c0 -22 2 -30 4 -17 2 12 2 30 0 40 -3 9 -5 -1 -4 -23z"/>
<path d="M1480 2710 c-9 -16 -8 -20 5 -20 12 0 15 -6 10 -21 -4 -13 0 -27 11
-40 18 -20 44 -26 44 -9 0 6 -7 10 -15 10 -8 0 -15 5 -15 11 0 5 -4 7 -10 4
-5 -3 -10 0 -10 9 0 8 5 16 11 18 7 2 5 11 -7 23 -19 18 -19 18 4 13 27 -7 28
-2 2 12 -15 8 -21 6 -30 -10z"/>
<path d="M1537 2573 c-13 -12 -7 -23 13 -23 13 0 18 5 14 15 -7 16 -17 19 -27
8z"/>
<path d="M1660 2560 c0 -5 5 -10 11 -10 5 0 7 5 4 10 -3 6 -8 10 -11 10 -2 0
-4 -4 -4 -10z"/>
<path d="M1591 2474 c0 -11 3 -14 6 -6 3 7 2 16 -1 19 -3 4 -6 -2 -5 -13z"/>
<path d="M2032 948 c1 -16 6 -28 10 -28 11 0 10 22 -2 40 -8 11 -9 9 -8 -12z"/>
<path d="M2125 830 c3 -5 8 -10 11 -10 2 0 4 5 4 10 0 6 -5 10 -11 10 -5 0 -7
-4 -4 -10z"/>
</g>
</svg>
