<svg version="1.0" xmlns="http://www.w3.org/2000/svg" width="400" height="400" viewBox="0 0 300 300"><path d="M135.1 21.1c-2.2 2.4-8.1 13.1-8.1 14.9 0 .6-.7 1.8-1.5 2.6-1.3 1.4-1.8 1.3-4.1-.5-1.5-1.2-3.5-2.1-4.5-2.1s-2-.4-2.3-.9c-1-1.5-7.5-2.3-9.6-1.1-1.1.6-3.7 3.4-5.9 6.3-2.1 2.9-4.7 6.1-5.7 7.2-1.1 1.1-3.9 4.7-6.4 8-5.5 7.2-6.8 8.9-10.1 12.9C74 71.9 68 80.6 68 81.3c0 .3-1.8 3.5-4 7.1-2.2 3.6-4 7-4 7.5s-.4 1.1-.9 1.3c-.5.1-1.7 2-2.7 4-7.8 15.3-13.4 27.4-13.4 28.7 0 .6-.9 3-1.9 5.4-1.1 2.3-2.4 5.8-3 7.7-.6 1.9-2.1 6.9-3.4 11-1.4 4.1-3 9.7-3.6 12.5-1.5 6.1-3 12.1-4.2 15.9-.5 1.6-.9 4-.9 5.4 0 1.3-1.1 3.7-2.4 5.3-1.4 1.6-3.8 7.1-5.5 12.3-1.6 5.2-3.4 10.2-3.9 11.2-3.2 5.9-7.3 18.8-7.8 24.5-.5 5-.3 7.4 1 10 1.5 3.2 7.3 7.9 9.7 7.9 1.4 0 .7 10-1.9 28.3L13.3 300h2.3c2 0 2.2-.6 2.7-8.7.6-10.5 2.7-28.6 3.2-29.2.3-.2 3.1.6 6.3 1.8 3.3 1.1 7.1 2.1 8.6 2.1h2.7l-.2 16.5c-.2 15.4.1 18.8 1.8 17.2.3-.4.8-7.9 1.1-16.6l.5-15.9 8.4-.7c4.7-.4 9.8-1.1 11.4-1.6 10-3.1 9-3.1 8.4.4-.3 1.8-1.3 8.6-2.1 15.2-.9 6.6-1.8 13.7-2.1 15.9-.4 3-.2 3.7.8 3.4 1.5-.5 4.7-15.4 4.8-22 .1-2 .6-7.1 1.2-11.3.9-6.2 1.5-7.5 3-7.5 1 0 2 .4 2.3.9.4.5 2.5 1.2 4.9 1.6 2.3.3 5.5.9 7 1.2l2.9.5-.4 18.4c-.2 13 0 18.4.8 18.4 1.6 0 2.4-8.2 2.4-23.9v-13.3l7.8.6c4.2.4 10.8.9 14.5 1.3l6.9.6-.7 3.1c-.4 1.7-1.1 7.4-1.6 12.6-.5 5.2-1.2 11.6-1.5 14.2-.4 3.1-.3 4.8.4 4.8.6 0 1.3-.8 1.6-1.8 1.3-4.3 3.6-21.8 3.6-27.3 0-5.9.1-6.1 2.3-5.5 1.2.3 7.3.6 13.4.6H154l2.5 4c1.4 2.2 2.5 4.4 2.5 5 0 .6.8 2.9 1.9 5.3 1 2.3 2.4 5.8 3.1 7.7 1.5 4 2.9 6 4.1 6 1.1 0 1.2-4.3.1-5.6-.5-.5-2.4-4.7-4.2-9.4-1.8-4.7-3.7-8.9-4.2-9.4-.4-.6-.8-1.7-.8-2.6 0-1.3 1.2-1.7 5.8-1.8 14.7-.5 41.7-3.7 43.7-5.2.6-.4 3.3-1.5 6-2.5 9.8-3.5 17.5-7.4 17.5-8.9 0-2.4-3.7-2.9-5.8-.8-1.1 1.1-4.6 2.8-7.8 3.7-3.3.9-7.4 2.5-9.2 3.6-1.9 1.1-3.8 1.7-4.3 1.3-.6-.3-1.5-.1-2.2.4-.7.5-4.3 1.2-8.2 1.4-3.8.3-5.5.3-3.7.1 1.7-.2 3.2-.9 3.2-1.4 0-.6-.9-.7-2-.4-1.2.4-2 .2-2-.4 0-.6 1.4-1 3-.9 1.7.1 3 .6 3 1s1.1.8 2.5.8 2.5-.5 2.5-1c0-.6 1.4-1 3-1 3.2 0 13.7-4.9 11-5.1-.8-.1-.4-.4 1-.8 1.5-.4 2.8-.3 3.2.3.5.7.8.4.8-.7 0-1.3.7-1.8 2.3-1.6 1.2.1 3.9-.8 6-2 3.6-2.2 4.8-4.1 2.6-4.1-.5 0-.7.4-.4 1 .3.5-.3 1-1.4 1-2.3 0-2.8-1.5-.8-2.3.7-.4.6-.6-.4-.6-.9-.1-1.9.6-2.3 1.4-1 2.7-2.3 1.5-1.8-1.7.4-2.9.3-3.1-1-2-1.2 1-2.2.9-4.9-.3-1.9-.8-2.9-1.4-2.2-1.5 1.3 0 6.3-4.3 6.3-5.4 0-.3-2.2-.6-5-.6-2.7 0-5 .4-5 1 0 .5-.5 1-1.1 1-.5 0-.8-.4-.5-.9.4-.5.2-1.1-.4-1.3-.5-.1-1.1-1.4-1.2-2.8-.2-1.4-.7-2.8-1.3-3.2-.6-.4-.2-.8.8-.8 2.1 0 5.3 2.8 4.3 3.8-.4.3-1.1 0-1.6-.8s-1.2-1.1-1.5-.8c-.4.4-.1 1.6.7 2.7l1.5 2.1 2.2-2.1c1.8-1.7 2-2.4 1-3.5-.6-.8-.9-1.7-.6-2 .9-1-1.9-3.4-3.9-3.4-1.5 0-1.3-.5.9-2.8 2.8-2.9 3.5-6.6 1.6-7.7-.5-.4-2.1.6-3.5 2.2-1.8 2.1-2.3 2.3-1.8.8.7-1.7.6-1.8-.9-.7-.8.8-1.3 2-1 2.8.6 1.7-1.3 1.9-2.1.1-.4-.8-.5-.7-.5.3.2 3.1-.1 4-1.6 4-.8 0-1.5-.5-1.5-1.1 0-.5.5-.7 1-.4 1.7 1 1.1-.7-.7-2-1.4-1.1-1.3-1.3 1.2-1.9 1.5-.4 3.4-1.4 4.2-2.2.8-.8 1.8-1.2 2.2-.9.5.2.6-.7.3-2-.6-3.1-2.2-4.3-2.2-1.7 0 1.1-.6 2.5-1.4 3.1-1.1 1-1.6.6-2.4-1.6-.7-1.7-1.1-2.1-1.1-1.1-.1 1.1-.9 1.8-2.2 1.8-2 0-2.1-.1-.5-2.2 3.2-4.4 8.6-12.7 8.6-13.3 0-1.4-2.9-.2-4.3 1.7-.8 1.3-2.5 3.4-3.8 4.9-1.3 1.4-3.7 4.2-5.3 6.3-3.9 5.1-17.2 18.5-22.1 22.1-2.2 1.7-4.5 3.5-5.2 4.1-1.9 1.8-15.6 8.1-18.8 8.7-2.8.5-3.1.3-4.3-3.4-.7-2.1-1.2-4.3-1.2-4.9 0-1.8-4.3-10.2-6.4-12.5-1.2-1.2-3.7-4.1-5.7-6.3s-6-5.2-8.9-6.7c-4.7-2.4-6.1-2.6-11.4-2-5.7.6-12.3 3.9-15.3 7.7-1 1.3-2.2 16.9-2.3 29.9v6.7l-5.7.7c-4.6.6-5.9.4-6.9-.9-.6-.9-1.8-1.6-2.6-1.6-1.7 0-2.8-4-2.8-10.2 0-2.4-.4-3.7-1-3.3-.5.3-1 3.3-1 6.5v5.9l-2.7-.9c-1.6-.4-4.7-1.7-7-2.9-2.4-1.1-6-2.9-8-3.9-11-5.4-11.3-5.7-11.3-14.6 0-6.6.3-7.8 2.7-10.7 3.3-3.9 7.9-5.9 13.5-5.9 4.2 0 12.8 2.6 12.8 3.9 0 .4 1 1.8 2.2 3.1 2.6 2.8 4.6 6.1 8.5 14.2 1.6 3.2 3.4 5.8 4.1 5.8 1.6 0 .6-4.2-2.1-9-1.1-1.9-2.6-4.6-3.3-6-2.5-4.8-8.8-11.3-12.8-13.1-5.8-2.6-14.1-2.5-19.3.3-6.1 3.3-8.4 6.9-9.7 14.9-.6 3.8-1.4 6.9-1.7 6.9-.4 0-3.3-2.3-6.3-5.1l-5.6-5.1v-7.5c0-4.2.4-9.2.9-11.2s1.5-6.3 2.1-9.6c2-10.5 3.1-14.8 5.5-23 1.3-4.4 2.9-10 3.6-12.5.6-2.5 1.5-5.4 1.9-6.5.5-1.1 1.8-4.9 3-8.5 2.7-8.3 2.7-8.3 9.6-22.5 3.1-6.6 6.1-12.2 6.6-12.3.4-.2.8-1 .8-1.8 0-1.5 1-3.3 9.3-17.3 3.1-5.2 6.4-10.4 7.4-11.5 1-1.2 2.6-3.3 3.5-4.7.9-1.4 2.3-3.2 3-4 .7-.8 3.3-4.1 5.8-7.4 2.5-3.3 5.1-6.6 5.8-7.3.6-.8 3.3-4.2 5.8-7.8 4.1-5.7 4.9-6.4 7.9-6.4 1.9 0 3.7.4 4 1 .3.5 1.4 1 2.4 1s5.1 3 9.2 6.7c4.1 3.8 9.1 8.2 11 9.9 2 1.7 4.4 4.5 5.5 6.2 1 1.8 2.1 3.2 2.5 3.2.4 0 1.2 1.3 1.9 3 .7 1.6 1.6 3 2.1 3s.9.4.9 1c0 .5.7 1.8 1.4 2.7.8 1 2.4 2.9 3.5 4.3 1.4 1.8 2.3 2.2 3.1 1.4 1.1-1.1 1-1.5-2-18.4-1.5-8.5-3.9-17.9-4.9-19.9-.6-1.1-1.2-3.5-1.3-5.4-.2-1.9-.7-3.3-1.2-3-.5.3-.7-1-.4-3 .2-2 .1-3.4-.3-3.1-.6.3-1.9-1.9-1.9-3.3 0-.6 6.9 3.6 10.2 6.3l2.7 2.2-2.2 1.5-2.2 1.5 2.8 1.3c2.9 1.3 3.5 2.5 1.5 3.1-.7.3-.2.7 1 1 1.5.4 2.2.2 2.2-.8 0-.8.5-1.4 1-1.4.6 0 1-.5 1-1s-.3-.9-.7-.9c-1.9.3-3.3-.2-3.3-1.1 0-1.7 1.8-1.1 4.7 1.5 1.6 1.5 2.1 2.3 1.1 1.9-2-.7-3.4 1.7-2.4 4.1.4 1.2 1.1 1.3 3.2.5s3.1-.7 4.6.7c1 .9 1.6 2.4 1.3 3.2-.3.8-.3 1.2 0 .9.4-.4 2.2.7 4.1 2.4 3.5 3.2 4.5 7.5 2.5 10.7-.7 1-.9.4-.8-2 .2-2.9-.1-3.3-1.7-3.1-1.7.3-1.8.2-.7-1.2 1.1-1.3 1.1-1.9.1-3.1-.7-.9-1.9-1.4-2.5-1.1-.7.2-2.4-.9-3.9-2.5-2.8-3-4.6-3.7-4.6-1.9 0 1.4-1.8 1.2-2.3-.3-.2-.6-.3-.5-.3.3.1.9 1 1.4 2.4 1.3 3-.4 6.9 3.2 5.5 4.9-.8.9-.7 1.7.2 2.5.8.7 1.6.9 2 .4.3-.5 0-1.1-.6-1.3-.7-.2-.7-.8.3-1.5.9-.8 1.9-.9 2.8-.2 1.3.8 1.3 1 .1 1.8-.8.5-1.8 3.3-2.1 6.3-.7 5-.3 7.8.7 5 .7-1.8 2.3-1.5 2.3.5.1 1.6.2 1.6 1.5-.1 1.3-1.7 1.5-1.8 2.1-.2.4.9.4 2 0 2.3-.3.4-.6 0-.6-.8s-.9-.1-2 1.6c-1.1 1.6-2 2.3-2 1.6 0-1.3-.2-1.3-1.2-.2-1 1-1 1.5-.1 1.8.9.3.9 1.2.2 2.9-.5 1.4-.9 6.1-.9 10.4 0 7.2.2 8 2.8 10.8 2.8 3 10.3 5.2 13.6 3.9.9-.4 1.8.5 2.6 2.6.6 1.8 1.6 3.9 2.1 4.7.4.8 1.6 3.1 2.5 5 .8 1.9 2 4.2 2.5 5 1.5 2.6 5.9 12 5.9 12.8 0 .4 1 2.7 2.2 5.2 1.2 2.5 2.5 5.4 2.9 6.5 5.8 15.9 7.1 18.5 9.7 19.2 2.5.6 2.9 1.8.8 3-.8.4-3.4 2.6-5.8 4.8-4.4 4.2-13.1 10.5-14.4 10.5-.4 0-2.1 1-3.8 2.3-1.7 1.2-4.9 2.8-7.1 3.5-2.2.7-4.9 1.7-6 2.2-7.2 2.9-11.9 3.5-28 3.5-14.1 0-18.5-.4-25.5-2.2-7.3-1.8-12.9-3-22.4-4.8-1-.2-1.5 0-1 .4.9.8 15.5 5.4 20.4 6.4 1.4.3 5.6 1.3 9.5 2.1 10.5 2.4 31.4 2.2 41.3-.4 11.7-3.1 23-7.8 26.5-11.1 1.2-1 2.7-1.9 3.4-1.9.7 0 1.3-.5 1.3-1 0-.6.6-1 1.3-1 1.1 0 5.3-3.4 11.7-9.4 4.3-4 10.9-6.6 8.1-3.2-1 1.2-.8 1.7.8 2.5 1.3.7 2.2.8 2.6.1.3-.5-.2-1-1.2-1.1-1 0-1.3-.3-.6-.5 1.6-.7 5.8 1.6 4.6 2.5-1.7 1.1-2.2 9.9-.7 11.2.8.6 1.4 2 1.4 3 0 1.1.7 1.9 1.5 1.9 1.8 0 2 1.7.3 2.2-1.7.6 2.3 5.7 4.5 5.8 1.3 0 1.7.9 1.7 4 0 2.2.5 4 1 4 .6 0 1 1.8 1 4s-.4 4-1 4c-.5 0-1 1.8-1 4 0 3.6.3 4 2.5 4 2.3 0 2.5.4 2.5 4 0 3.1-.4 4-1.7 4.1-1.5 0-1.5.2.2.9s1.6.9-1 1c-2.9.2-2.9.2-.5.9 1.5.4 2.6 1.5 2.8 2.9.2 1.2.8 2.2 1.3 2.2s.9 1.8.9 3.9c0 2.2.5 4.1 1.1 4.3 1.6.5.1 4.8-1.7 4.8-.8 0-1.4.7-1.4 1.5s.4 1.5.9 1.5c1.1 0 2.4 6.3 2.3 12v4.5l.7-4.5c.7-5.5 2.5-5.5 2.9 0 .3 4 .3 4 4.6 4 2.3 0 4.8.6 5.5 1.2 1.1 1.1 1.2.5.7-3.2-.4-3.2-.3-3.8.3-2 .5 1.4.9 3.7 1 5.2.1 2.6 0 2.6-5.2 2.1l-5.4-.5-.6 6.8c-.6 6.4.2 10 1.7 7.5 1.3-2.1 3.2-1.1 4.5 2.5 1.4 3.8 2.7 3.6 3.4-.6.4-2.6 0 1.1-.9 8.8-.8 5.8.4 7 6.9 6.6 6.4-.5 9.7-1.2 9.6-2.2-.3-2 .2-2.5 1.2-1.2.8 1.2.9 1 .4-.8-.6-2-.4-2.2 1.8-1.7 3 .8 3.6-.5 4.4-9.3.3-3.4 1-6.5 1.4-6.8 1.2-.7 1.1-15 0-21.1-.5-2.6-1.5-8.6-2.1-13.3-.7-4.7-2.1-11.8-3.1-15.7-1.1-4-1.9-8.6-1.9-10.1 0-4.9-16.7-23.1-24.5-26.8-2.8-1.3-3.6-2.6-6.5-11.7-1.9-5.6-3.7-10.7-4.1-11.2-.3-.6-1.7-3.9-2.9-7.5-2.4-6.9-4.3-11.3-9.5-22.5-1.8-3.9-3.9-8.5-4.7-10.3-.7-1.7-1.6-3.2-2-3.2-.5 0-.8-.7-.8-1.6 0-1.4-3.7-9.1-5-10.4-.3-.3-1.2-1.9-2-3.5-.8-1.7-1.7-3.2-2-3.5-1.3-1.3-6-9.1-6-10 0-.5-.4-1-.9-1s-1.4-1.4-2.1-3c-.7-1.7-1.6-3-2-3-.4 0-1.3-1.3-1.9-2.8-.6-1.5-2.2-4-3.4-5.5-1.2-1.4-3.8-4.8-5.7-7.4-1.9-2.7-3.7-5-4-5.3-.3-.3-1.8-2.2-3.4-4.4-1.6-2.1-5.5-6.5-8.7-9.8-3.3-3.3-7.1-7.4-8.5-9.2-7.2-8.6-13.8-14.7-18.4-17.1-1.9-1-3.7-2.1-4-2.4-.3-.3-1.9-1.4-3.7-2.4-4.2-2.3-8.8-2.2-11.2.4zM140 26c-.5 1-1.6 2.4-2.2 3.2-3.6 3.7-6.6 9.7-6.6 13.1 0 2 .5 3.7 1.1 3.7.6 0 .7.3.4.7-.4.3-1.8-.4-3.2-1.7-2.2-2-2.3-2.6-1.1-3.9.7-.9 2.6-4.1 4.1-7.1 1.5-2.9 3.7-6.6 4.8-8.2 2.2-3 4.3-2.8 2.7.2zm6 15.1c0 .4-.7.9-1.5 1.3-1 .3-1.4-.1-1.3-1.2.1-.9 0-2.6-.1-3.7-.2-1.8-.4-1.7-2.7 1-1.8 2-2.2 2.3-1.5.8.6-1.2 1.6-2.5 2.1-2.8.6-.3 1-1.5 1-2.6 0-1.4-.4-1.8-1.2-1.3-.8.5-.7.1.1-1 1.4-1.6 1.6-1.4 3.3 3.6.9 2.9 1.8 5.6 1.8 5.9zm-6-6.1c0 .5-.5 1-1.1 1-.5 0-.7-.5-.4-1 .3-.6.8-1 1.1-1 .2 0 .4.4.4 1zm23.3 6.5c-.7 2.1-1.3 1.9-1.3-.6 0-1.1.4-1.8 1-1.4.5.3.7 1.2.3 2zm-14.9 9.2c.9 3.7 1.2 6.9.7 7.2-.4.3-1.2 1.6-1.6 2.9-.4 1.3-.9 2.1-1.2 1.8-.3-.3 0-1.9.7-3.6 1.1-2.5 1-3.9 0-7.3-.8-2.3-1.7-4.7-2.2-5.3-.8-1.1-.1-2.4 1.2-2.4.4 0 1.5 3 2.4 6.7zM138 51.8c-1.4.5-4-1.7-4-3.4 0-1 .8-.7 2.6.8 1.4 1.3 2 2.4 1.4 2.6zm11.6 12.4c-1.9 2.7-2.1 1.9-.4-1.8.7-1.4 1.4-2.1 1.6-1.5.2.6-.4 2.1-1.2 3.3zm39.7 2.7c1.7 2.5 3.7 5.2 4.4 5.9.7.7 1.3 2.2 1.3 3.3 0 1.2.4 1.7 1.1 1.3.8-.4.9.1.4 1.7-.5 1.8-.4 2 .4.9.5-.8 1.3-1.1 1.8-.7.4.5.2 1.2-.5 1.6-.7.4-1.1 1.4-.9 2.2.2.8.2 1-.1.6-.2-.4-.9-.1-1.6.8-1 1.4-1.4 1.3-3.3-1.3l-2.1-2.9 2.4.3c1.3.1 2.4-.2 2.4-.7 0-.8-1.5-1.3-3.2-1-.4 0-.3-1.1.2-2.5 1.1-2.8.5-4.8-1.2-3.8-.6.4-.8.2-.4-.4.3-.6.2-1.3-.4-1.7-.6-.4-1 .5-1 2.2 0 2-.3 2.4-.9 1.4-.7-1.1-.9-1.1-1.4 0-.4 1-.6.9-.6-.4-.1-.9.4-1.7 1-1.7s-.6-1.5-2.5-3.4c-2-1.8-3.6-3.6-3.6-4 0-.8 2.4-.3 3.1.7.3.5.9.1 1.2-.8.4-.9.3-1.3-.3-1-.6.3-1 .2-1-.3 0-.6-1-.8-2.2-.5-2.3.5-2.3.5-.3-1 2.4-1.9 3.4-1.2 7.8 5.2zm-5.4 10.6c2.5 4.1 5.3 8.4 6.3 9.5 1 1 1.8 2.4 1.8 3 0 .5.4 1 .8 1s2.1 2.8 3.6 6.2c1.6 3.5 3.2 6.5 3.5 6.8.4.3 1.5 2.2 2.4 4.2 1 2 2.3 4.3 3 5 1.8 1.9 7.7 11.8 7.7 12.9 0 .5.5.9 1 .9.6 0 1 .6 1 1.4 0 .8.4 1.6.8 1.8 1.5.6 6.2 7.5 6.2 9.1 0 1 .3 1.7.8 1.7 1 0 3.2 7.4 3.9 13.2.5 3.9.3 4.9-1.1 5.4-2.4.9-8-2.4-9.3-5.5-.6-1.4-2.9-7.3-5.1-13.1-5.1-13-10.4-25.1-12.4-28.2-.8-1.2-2.8-5.2-4.3-8.8-3.5-8-5-9.9-6.7-8.2-1.8 1.8-4.5 1.5-8.8-.9-4.1-2.3-5-4.6-5-12.2 0-3.8 3.4-12.7 4.8-12.7.4 0 2.7 3.4 5.1 7.5zm6.4-.5c-.3 1.2-.8 1.9-1.1 1.6-.5-.6.5-3.6 1.2-3.6.2 0 .2.9-.1 2zm10.1 5.5c-.4.8-.1 1.5.4 1.5.6 0 2.2 1.9 3.6 4.2 1.9 3.2 2.2 4.5 1.4 5.5-.6.8-.8 1.6-.4 2 .3.3.6.1.6-.5 0-.7.8-1.2 1.8-1.2 1.6.1 1.6.1 0 1.1-1.7.9-1.6 1.2.5 4.1 1.6 2.2 1.8 3.2 1 3.5-1.8.6-1.6 4 .1 4.6.8.3 1.6.1 1.8-.5.6-1.8 3.8 5.7 3.8 8.8 0 2.6.1 2.7 1.4.9 1.3-1.8 1.4-1.8 2 .3.4 1.2 1.2 2.2 1.7 2.2 1.3 0 1.1-1.2-.6-3.4-1.7-2.3-1.9-3.6-.6-3.6.5 0 1.3 1 1.7 2.2.3 1.3 1.4 3.2 2.3 4.2.9 1.1 1.1 1.6.5 1.3-.7-.4-1.5.1-1.8 1.1-.3.9-1.2 2.7-2 4-1.2 2.1-1.4 2.1-2 .5-.4-1-.2-1.9.3-2.1.6-.2 1.1-.8 1.1-1.4 0-.6-.9-.3-2 .7-1.7 1.5-2 1.6-2 .3 0-.9-1.6-4-3.7-6.9-2-3-3.6-6.2-3.5-7.2 0-.9-.4-1.5-.9-1.1-.6.3-.7-.5-.4-2.3.5-2.1.4-2.4-.4-1.3-.9 1.3-1.2 1.3-2.3.1-.7-.8-.8-1.1-.2-.8 1.3.8 2.3-1.2 1.7-3.1-.4-1-.9-.8-2 .5-1.3 1.6-1.3 1.6-.2-.7 1.5-2.9 1.3-11.1-.3-12.5-.7-.7-.9-.2-.4 1.7.5 2.3.3 2.8-1.3 2.8-2.6 0-4.7-2.6-2.7-3.3 1.1-.4 1.3-.1 1 1.1-.5 1.4-.4 1.4.4.2.6-.8.8-1.9.4-2.4-.8-1.3-1.1-4.8-.5-5.9.8-1.3 1.3-.7.7.8zm12.8 19.9c1.1 2.3 2.5 4.4 3 4.7.6.4.6.9-.1 1.3-.6.4-1.5-.4-2.1-1.9-.8-2.1-1.5-2.5-3.3-2.1-1.2.3-1.6.3-.9 0 1.7-.8 1.5-3.5-.5-6.4-1.6-2.4-1.6-2.4.1-1.1.9.8 2.7 3.3 3.8 5.5zm3.9 9.9c-.8.8-1.1.7-1.1-.4 0-.9.3-1.9.7-2.3.4-.4.9-.2 1.1.4.3.7-.1 1.7-.7 2.3zm8.3 11.3c.3.8.2 2.3-.4 3.3-.5 1-.6 2.2-.1 2.7.4.5 1.2 2.1 1.9 3.6.9 2.1.8 2.7-.4 3.2-.9.3-1.2.1-.9-.4.8-1.3-.4-5-1.6-5-.6 0-.7.4-.4 1 .3.5.4 1 .1 1-.3 0-1.2-1.3-2.1-3-1.3-2.6-1.4-2.9 0-2.4.8.4 1.5.2 1.5-.4 0-.6-.5-1.2-1.2-1.4-.9-.3-.8-.9.2-2.1 1.9-2.1 2.6-2.1 3.4-.1zm2.6 7.3c0 1.1-.4.9-1.4-.4-.8-1.1-1.2-2.4-.9-2.8.7-1.1 2.3 1.2 2.3 3.2zm2 3.1c0 .5-.4 1-1 1-.5 0-1-.5-1-1 0-.6.5-1 1-1 .6 0 1 .4 1 1zm1.6 5.3c.8-.3 1.4 0 1.4.6s-.7 1.1-1.5 1.1-1.5.4-1.5 1c0 .5.4 1 .9 1 1.2 0 .2 3.8-1.2 4.7-.6.4-.8-.4-.5-2.1.4-1.8.1-2.6-.8-2.6-.8 0-1.4-.4-1.4-.9s-.3-1.6-.6-2.5c-.3-.9-.1-1.6.5-1.6s1.1.7 1.1 1.5.4 1.5.9 1.5c.4 0 .7-1 .6-2.3-.1-1.2 0-1.4.2-.5.2 1 1 1.5 1.9 1.1zm6.7 17.2c-.5 2.8-.4 2.9 1.3 1.5 1.6-1.4 1.7-1.3 1.1.2-.3 1-.3 1.8.2 1.8s1.2 1.5 1.5 3.4c.4 1.9 1 3.6 1.5 3.8.4.2.1 1.9-.6 3.8-1.3 3-1.6 3.2-2.5 1.7-.5-1-.7-2.3-.4-3 .2-.7.5-.3.6.8.1 2 .1 2 .9 0 1.1-2.7.2-6.2-1.1-4.3-.6.9-.7.6-.3-.9.8-2.9-4.1-8.5-5.6-6.3-1.3 1.8-.8.5 1-3.2 1.1-2.2 1.2-3.3.2-5l-1.2-2.3.5 2.2c.4 2.3-1.5 4.8-2.7 3.6-.4-.3-.7 1.2-.7 3.5 0 4-1.3 6.2-2.4 4.3-.4-.5-.2-1.2.4-1.6.5-.3 1-1.8 1-3.2 0-1.4 1-4.3 2.2-6.5l2.2-3.9 1.8 3.3c1.1 2.1 1.5 4.3 1.1 6.3zm8.3 19c-.5 1.8-.2 2.5.9 2.5s1.5 1 1.5 3.5c0 1.9.4 3.5.9 3.5s1.1 1.3 1.3 2.9c.3 1.7 0 2.7-.5 2.4-.5-.3-1.3.1-1.8.8-.6.9-.7.1-.2-2 .5-2.7.2-3.7-1.2-4.8-1.3-.9-1.4-1.3-.5-1.3 1 0 .8-.6-.6-2.3-1.1-1.2-2.6-3.1-3.4-4.1-1.4-1.7-1.3-1.8.8-1.2 1.6.6 2.2.3 2.2-.8 0-.9.3-1.6.6-1.6s.3 1.1 0 2.5zm-5.9 1.7c-.3.8-.6.5-.6-.6-.1-1.1.2-1.7.5-1.3.3.3.4 1.2.1 1.9zm-1.7-.3c0 2-1.3 4.1-2.1 3.5-1.5-.9-1-4.4.6-4.4.8 0 1.5.4 1.5.9zm4 5.6c-.7.8-1.8 1.5-2.4 1.4-.7 0-.6-.2.2-.6.6-.2 1.2-1.4 1.2-2.6 0-1.6.3-1.8 1.2-.9.8.8.8 1.5-.2 2.7zm17.2 11.5c1.3 1.1 1.6 2 .9 2-1.3 0-4.1-2.4-4.1-3.4 0-1.1 1.1-.6 3.2 1.4zm-5.2 11.7c0 1.3-.4 2.3-1 2.3-.5 0-1-1.7-1-3.9 0-2.1-.2-5.4-.5-7.2-.3-2.2 0-1.6 1 1.6.8 2.7 1.5 6 1.5 7.2zm8.9-7c-1 1.1-1 1.4-.1.9.6-.4 1.2-.2 1.2.3 0 .6-.7 1.1-1.5 1.1s-1.5-.9-1.5-2c0-1.2.7-2 1.6-2 1.4 0 1.5.2.3 1.7zM261 200c0 1.4.7 2 2.4 2 1.3 0 2.6-.5 2.8-1.1.2-.6 1.2-.1 2.3 1.1 1.6 1.8 1.6 2 .2 1.4-1.1-.4-1.7-.1-1.8 1-.3 2.9-.4 3.4-1.1 4.2-.5.4-.8.2-.8-.4 0-.7-.3-1.1-.7-1.1-1.8.3-3.3-.2-3.3-1 0-.6.9-.8 2-.6 1.1.2 2 0 2-.6 0-.5-.4-1-1-1-.5-.1-1.5-.2-2.1-.3-1.9-.2-3.7-5.6-1.9-5.6.6 0 1 .9 1 2zm-12.3 4.2c-.3.8-.6.5-.6-.6-.1-1.1.2-1.7.5-1.3.3.3.4 1.2.1 1.9zm-225.9 1.7c-.1 1.6-.5 2.8-.9 2.5-.4-.2-.5 2.1-.4 5.1.2 3-.1 5.5-.6 5.5-1.2 0-1.1-10.7.1-11.5.6-.3 1-1.5 1-2.6 0-1 .2-1.9.5-1.9s.4 1.3.3 2.9zm97 3.2c2.2 1.2 5.1 3.1 6.4 4.3 3.5 3.2 9.7 11.6 11.4 15.6.3.8 1 2.4 1.4 3.5.5 1.1 1.1 3.6 1.4 5.6.6 3.4.5 3.6-3.1 4.7-2.1.5-5.2 1.3-7 1.7l-3.1.6-.5-5.3c-.8-7.4-1.8-11.7-3-12.5-.9-.5-.6 7.6.5 15.2.2 1.1-.3 2-1.2 2.1-.8.1-6.2.7-12 1.4-5.8.6-11.7 1.3-13.2 1.5l-2.8.4v-15c0-11.5.4-15.9 1.5-18.3 3.4-7 15.2-9.8 23.3-5.5zm155.1.7c-.5.2-.9.8-.9 1.4 0 .6.6.8 1.3.5.7-.3 1.9.4 2.5 1.4.8 1.2.8 1.9.2 1.9-.5 0-1-.4-1-.9s-.9-1.1-2-1.4c-1.4-.3-2-1.4-2-3.1 0-2.3.2-2.5 1.4-1.4.8.7 1 1.4.5 1.6zm-73.9-.4c0 .2-1.3.6-3 .8-1.6.3-3 .1-3-.4 0-.4 1.4-.8 3-.8 1.7 0 3 .2 3 .4zm67.5 7.3c-1.2 1.1-1.7 1.1-3.5-.4-3.4-2.9-2.5-4.5 1.4-2.6 2.9 1.4 3.2 1.8 2.1 3zm-76.9-2c0 1-.8 2.3-1.6 3-1.3 1.1-1.2 1.2.8 1.3 1.2 0 2.2.4 2.2 1 0 1.5-4 1.2-4.6-.4-.3-.8.2-2.6 1.1-4 2-3.1 2.3-3.2 2.1-.9zm66.4-.7c0 .5-.4 1-1 1-.5 0-1-.5-1-1 0-.6.5-1 1-1 .6 0 1 .4 1 1zm-61.3 4c1 2 1.1 2.1 1.6.4.4-1.6.5-1.5.6.3 0 1.3-.4 2.3-.9 2.3-.6 0-2 .9-3.2 2-1.2 1.1-2.9 2-3.7 2-1.4 0-1.4-.1-.1-1 1.1-.7 1.2-1 .2-1-.8 0-1.6.9-1.9 2-.3 1.1-.9 2-1.4 2-.4 0-1.3-.9-1.9-2-.7-1.4-.7-2 0-2 .5 0 1 .8 1 1.7 0 1.5.2 1.6.9.3.6-.8.7-1.8.5-2.2-.3-.4 1.1-.8 3.1-.8s3.4-.4 3.1-.9c-.4-.5-.1-1.1.6-1.3.7-.3.9-1.2.5-2.2-.4-.9-1.1-1.4-1.7-1.1-.5.3-1 .1-1-.5 0-1.8 2.4-.6 3.7 2zm61.3-.4c0 .8-.4 1.2-1 .9-.5-.3-1-1-1-1.6 0-.5.5-.9 1-.9.6 0 1 .7 1 1.6zm21.9 3.4c.6 0 1.1 1.2 1.1 2.7 0 2.1-.3 2.4-.9 1.3-.6-.8-.7-1.8-.4-2.3.3-.5-1.2-.8-3.6-.5-3.6.3-4 .2-2.5-.9 1-.7 1.2-1.3.6-1.3-.7 0-1.2-.7-1.2-1.6 0-1.3.5-1.2 2.9.5 1.6 1.2 3.4 2.1 4 2.1zm-93.4-.1c-.3.6-1.1.8-1.7.5-.6-.4-.5-.9.3-1.5 1.6-1 2.3-.4 1.4 1zm21 0c-.3.6-1.1 1.1-1.7 1.1-.6 0-.6-.6.2-1.5 1.4-1.7 2.6-1.3 1.5.4zm59.8.3c.4 1.3.1 2.6-.6 3-.8.5-.7.8.6.8.9 0 1.7.4 1.7 1 0 .5-.7 1-1.5 1-1.4 0-1.9-1.1-1.6-3.7.1-.6-.3-1.4-.9-1.8-1.5-.9-1.2-2.5.4-2.5.7 0 1.6 1 1.9 2.2zm-250.1 1c-.7.7-1.2.8-1.2.2 0-1.4 1.2-2.6 1.9-1.9.2.3-.1 1.1-.7 1.7zM24 224c.5 0 .7-.7.4-1.5-.9-2.2.4-1.8 1.6.6 1.3 2.3.3 8.2-1.1 7.3-.6-.4-.6-1.1.1-1.9.7-.8 1-2.2.7-3.2-.4-1.5-.6-1.4-1.3.6-.7 2.3-.8 2.4-1.5.5-.4-1-.7-3-.7-4.4.1-2.3.1-2.3.5-.3.2 1.3.8 2.3 1.3 2.3zm236.9 2.2c.1 1-.3 1.8-.8 1.8-1.4 0-2.2-2.9-1.4-5.8l.7-2.7.7 2.5c.4 1.4.7 3.3.8 4.2zm-77.2-2.8c-.3.8-.1 1.7.6 2 .7.3.1.3-1.2 0-2-.5-2.3-.3-1.8 1 .4 1 .3 1.5-.3 1.1-.6-.3-1-.1-1 .4 0 .6.4 1.1 1 1.1.5 0 .7.7.3 1.6-.3.8-1.2 1.3-2.1.9-.8-.3-2.2 0-3.1.7-1.4 1.2-1.5 1.1-.2-.5.8-1 2.1-1.5 2.8-1.2.9.3 1.3 0 1-.7-.2-.7-1.1-1.2-1.8-1-.8.2.2-1.3 2-3.2 3.8-3.9 4.6-4.4 3.8-2.2zm87.7 2.8c.1 2 .7 2.3 5.3 2.6 4.3.2 5.1.6 4.6 1.9-.5 1.2-.3 1.4.8.8 1-.6 1.1-.5.3.4-1.1 1.2-.7 7.1.6 7.1.4 0 1 .7 1.4 1.5.4 1.2.2 1.3-1.4.2-1.1-.6-2-1.7-2-2.4s-.5-1.2-1.2-1.1c-1.1.3-1.4-.2-1.7-3.6-.1-1-1.2-1.4-3.3-1.3-2 .1-3.3-.3-3.3-1 0-.6-.3-1.5-.7-1.9-.5-.4-.8 0-.8 1 0 1.4-.2 1.5-1.4.4s-1.2-1.4 0-2.1c.8-.4 1.4-2 1.4-3.4 0-3.2 1.2-2.3 1.4.9zm5.3-2.6c-.3.3-1.2.4-1.9.1-.8-.3-.5-.6.6-.6 1.1-.1 1.7.2 1.3.5zM16 225.9c-1.2 2.4-1.3 3.1-.1 3.1.5 0 1.2-1 1.5-2.3.7-2.1.7-2.1 1.6-.2 1.2 2.7 1.2 3.7.1 3.1-.5-.4-1.1-.1-1.3.5-.6 1.8-3.8-.2-3.8-2.5 0-2.4.8-3.6 2.2-3.6.5 0 .4.9-.2 1.9zm17 5.2c0 .5.4.8.9.4.5-.3 1.3-.1 1.6.5.4.6.3 1-.2.9-2-.3-2.7.2-1.3 1.1 2.2 1.4.6 2.2-2.1 1.1-1.3-.5-1.8-1-1.1-1 .6-.1 1.2-.6 1.2-1.1 0-.7-.8-.7-2.2.1-1.9.9-2.1.9-1-.2.6-.7 1.2-2 1.2-2.9 0-1.3-.1-1.3-1 0-.8 1.1-.9.9-.6-1 .3-1.4.5-2.6.5-2.8.2-.6 4.1 3.9 4.1 4.9zm152.5-3.1c-.3.5-1.1 1-1.6 1-.6 0-.7-.5-.4-1 .3-.6 1.1-1 1.6-1 .6 0 .7.4.4 1zm-10.5 2.5c-.7.9-1.5 1.3-1.9 1-.3-.3.1-1 .9-1.5 2.1-1.4 2.4-1.2 1 .5zm19.4 0c-.4.8-.7 1.5-.9 1.5-.2 0-.5-.7-.9-1.5-.3-.9 0-1.5.9-1.5s1.2.6.9 1.5zm63.3 1.7c-.3.7-.5.2-.5-1.2s.2-1.9.5-1.3c.2.7.2 1.9 0 2.5zm4 .5c-.3 1-.5.4-.5-1.2 0-1.7.2-2.4.5-1.8.2.7.2 2.1 0 3zm-239.9.2c2.6 2.2 2.8 3.1.7 3.1-.8 0-1.5-.7-1.5-1.5 0-1.3-.4-1.4-2.1-.5-1.9 1.1-2 1-.9-.9 1.3-2.5 1.2-2.5 3.8-.2zM192 232c0 .5-.2 1-.4 1-.3 0-.8-.5-1.1-1-.3-.6-.1-1 .4-1 .6 0 1.1.4 1.1 1zm8.4-.2c.2.4-.7.8-2.2.9-2.4.2-2.4.1-.7-.7 1.1-.5 2.1-.9 2.2-.9.1-.1.4.3.7.7zm7.6.7c-1.4 1.7-3 2-3 .4 0-.5.4-.8.9-.4.5.3 1.2.1 1.6-.5.3-.5.9-1 1.2-1 .3 0 0 .7-.7 1.5zm-167.7 3.8c-.4.6 0 .8.9.5.8-.4 3.3.4 5.4 1.7l3.9 2.4-3-.1c-1.6-.1-3.9.2-5 .7-1.7.7-1.6.5.4-1.3l2.4-2.2h-3.1c-1.8 0-3.2.4-3.2.9 0 1.4-3.9.9-4.4-.6-.3-.7-.2-1.3.3-1.3s1.2-1.1 1.5-2.5c.6-2.3.7-2.4 2.6-.8 1 .9 1.6 2.1 1.3 2.6zm148.7-3.9c0 .3-.4.8-1 1.1-.5.3-1 .1-1-.4 0-.6.5-1.1 1-1.1.6 0 1 .2 1 .4zm13.3 1.8c-.5.9-2 1.1-4.8.7l-4-.6 4.3-.2c2.4 0 4.2-.6 4.2-1.3 0-.6.3-.9.6-.5.3.3.2 1.1-.3 1.9zM13 236.8c0 .7.7 2 1.5 2.8.8.8 1.2 2.1.9 2.9-.9 2.3-2.3 1.8-1.7-.5.4-1.4.1-2-.7-1.8-.9.2-1.4-1.1-1.6-3.7-.2-2.8 0-3.5.6-2.5.5.8 1 2.1 1 2.8zm159-2.9c0 1.3-4.3 3.9-5.7 3.4-1-.4-1-.7 0-1.8.8-.9 1.4-1 1.9-.2s.9.5 1.4-.6c.6-1.8 2.4-2.4 2.4-.8zm105 1.1c0 .5-.2 1-.4 1-.3 0-.8-.5-1.1-1-.3-.6-.1-1 .4-1 .6 0 1.1.4 1.1 1zm-92 3.1c0 1.2.5 1.9 1.3 1.6.6-.2 1.2-1 1.2-1.8s.9-1.3 2-1.2c1.1.1 2.3-.4 2.7-1 .6-.9.8-.9.8.1 0 .9 1 1.1 3.8.7l3.7-.6-3.9 2.1c-4.3 2.2-5 2.4-4.2 1.2.2-.4-.4-.8-1.5-.8-1.2 0-1.8.5-1.5 1.3.3.7 0 1.5-.6 1.9-.6.4-.8.3-.5-.3.4-.7-.8-.9-3.4-.8-2.2.1-4.2-.2-4.5-.7-.3-.5-2.2-.6-4.2-.2-2 .4-3.4.4-3.1 0 .4-.4 1.6-.8 2.7-1.1 1.1-.2 3.3-1 4.9-1.8 3.2-1.7 4.3-1.4 4.3 1.4zm27.6-1.6c-1.1.8-2.5 1.5-3 1.5-.6 0-.3.7.8 1.5 1.8 1.3 1.8 1.4-.2 1.2-2.7-.2-2.1-2.9.9-4.4 3.2-1.7 3.8-1.6 1.5.2zm50.6 1c1.2 3.9.9 10.5-.6 10.5-.9 0-1.5-1.6-1.9-4.8-.2-2.6-.8-5.4-1.1-6.4-.6-1.2-.2-1.6 1.1-1.5 1 .1 2.1 1.1 2.5 2.2zM20.5 237c.3.5.2 1-.4 1-.5 0-1.3-.5-1.6-1-.3-.6-.2-1 .4-1 .5 0 1.3.4 1.6 1zm4.6.9c.7-1.1.9-1.1.9.2 0 2.6-2.6 3.1-2.7.5 0-1.1.1-1.5.4-.7.5 1.1.7 1.1 1.4 0zm248.2.9c1 1.1 1.3 2.3.8 3.1-1.3 2-3.3.3-2.5-2.1.4-1.3.2-1.9-.6-1.6-.6.2-1.1.7-1.1 1.1.1.4.1 1.6.1 2.8 0 1.1.4 1.8.9 1.5 1-.7 2.5 2.4 1.6 3.3-.3.3-1-.1-1.5-.9-.6-.8-1-1.1-1.1-.5-.1.5-.5-.5-.9-2.4-1.4-5.8.9-8.1 4.3-4.3zm-109.8.2c-.3.5-1.1 1-1.6 1-.6 0-.7-.5-.4-1 .3-.6 1.1-1 1.6-1 .6 0 .7.4.4 1zM35 244.6c0 2-2.8 2.4-5.9.8-3.8-1.9-4.7-3.2-2.7-4 .9-.3 1.3-1.1 1-1.6-.4-.6 1.2.1 3.5 1.4 2.2 1.2 4.1 2.8 4.1 3.4zm137-3.6c0 .5-.4 1-1 1-.5 0-1-.5-1-1 0-.6.5-1 1-1 .6 0 1 .4 1 1zm48.7 1.2c-.3.8-.6.5-.6-.6-.1-1.1.2-1.7.5-1.3.3.3.4 1.2.1 1.9zm-1.7-.2c0 .5-.5 1-1.1 1-.5 0-.7-.5-.4-1 .3-.6.8-1 1.1-1 .2 0 .4.4.4 1zm-172 .4c0 .3-.4.8-1 1.1-.5.3-1 .1-1-.4 0-.6.5-1.1 1-1.1.6 0 1 .2 1 .4zm8.2 1.6l3.3 2.1-3-.6c-8.1-1.7-8-1.6-6.4-2.6 2-1.2 2.4-1.2 6.1 1.1zm98.8-1.6c0 .3-.4.8-1 1.1-.5.3-1 .1-1-.4 0-.6.5-1.1 1-1.1.6 0 1 .2 1 .4zm19 1.5c0 .4-1.8.7-4 .7-3.8-.1-5.3-1-2.8-1.8 1.6-.6 6.8.3 6.8 1.1zm13-.9c-1.9 1.3-3 1.3-3 0 0-.6 1-1 2.3-1 1.8 0 1.9.2.7 1zm25.3-.3c-.7.2-2.1.2-3 0-1-.3-.4-.5 1.2-.5 1.7 0 2.4.2 1.8.5zm-13.3.7c0 .2-.7.7-1.6 1-.8.3-1.2.2-.9-.4.6-1 2.5-1.4 2.5-.6zm17 .6c0 .5-.4 1-1 1-.5 0-1-.5-1-1 0-.6.5-1 1-1 .6 0 1 .4 1 1zm-200.9 5.7c1.1 1.3 1.9 2.8 1.7 3.3-.6 1.9-4.4-2.2-5.6-6-1.1-3.2-1-3.3.3-1.5.8 1.1 2.4 3 3.6 4.2zm210.4-4.7c.3.5-.3 1-1.4 1-1.2 0-2.1-.5-2.1-1 0-.6.6-1 1.4-1 .8 0 1.8.4 2.1 1zm58.1 1.7c-.6.6-3.6-.9-3.6-1.8 0-.5.9-.4 2 .3 1 .7 1.8 1.4 1.6 1.5zM62 246.6c0 .2-.7.4-1.5.4s-1.5-.4-1.5-1c0-.5.7-.7 1.5-.4.8.4 1.5.8 1.5 1zm83-.6c-.8.5-2.4.9-3.5.9-1.6-.1-1.6-.2.5-.9 3.5-1.1 4.8-1.1 3 0zm18 0c-1.3.8-1.3 1 .2 1 .9 0 2-.5 2.3-1 .3-.6 1.1-1 1.6-1 .6 0 .8.4.5.9-.3.4.7.6 2.2.4 2.6-.5 2.6-.4.7.9-2.1 1.6-2.8 1.7-12 1.9-5.1.1-5.5.2-2.5.8l3.5.7-4.5.7c-7.4 1.2-18 1.7-14.5.8 1.7-.5 5-.9 7.5-1.1 3.4-.1 4-.3 2.5-1-1.7-.6-1.4-.9 1.7-1.5 2.1-.4 4-.7 4.3-.6.3.1 1.3-.5 2.1-1.4.9-.8 2.5-1.5 3.7-1.5 1.8 0 1.9.2.7 1zm15.1-.1c-.8.5-2 .7-2.8.4-2.1-.8-1.5-1.3 1.5-1.3 2 0 2.3.3 1.3.9zm32 0c-.8.5-2 .7-2.8.4-2.1-.8-1.5-1.3 1.5-1.3 2 0 2.3.3 1.3.9zm-191 1.8c1.3 1.6 1.2 1.7-.3.4-1.7-1.3-2.2-2.1-1.4-2.1.2 0 1 .8 1.7 1.7zM256 247c0 .5-.7 1-1.6 1-.8 0-1.2-.5-.9-1 .3-.6 1-1 1.6-1 .5 0 .9.4.9 1zm-231.7 2.5c-.3 1 .1 1.5 1.2 1.5.9 0 1.3-.5 1-1-.4-.6.5-.5 1.9.2 1.4.6 2.6 1.5 2.6 2 0 1.2-2.7 1-6.6-.7-3-1.2-3.3-1.7-2.2-2.9 1.6-1.7 2.9-1.1 2.1.9zm27.2-.5c4.7.8 4.6.9-1.5.3-3.6-.3-8.2-.6-10.3-.8-2.1-.2-4.1-.6-4.5-.9-.7-.8 9.3.1 16.3 1.4zm83.5-1c-.8.5-1.9 1-2.5 1-.5 0-.3-.5.5-1s2-1 2.5-1c.6 0 .3.5-.5 1zm54.5 0c-.3.5-1.4 1.1-2.3 1.1-.9.1-.4.4 1.3.8 2.7.6 2.6.7-2.2 1.7-4.3.8-5.3.8-5.8-.3-.3-.9.1-1.3 1.3-1.1.9.1 2.8-.5 4.2-1.5 2.7-1.9 4.5-2.2 3.5-.7zm11.3.1c.9.1-.1.5-2.3.9-2.2.4-4.4.5-4.9.2-1.3-.7 2.5-2.2 4.2-1.6.8.2 2.1.5 3 .5zm79.3.6c1.1 1.5 1.1 1.6 0 .6-.7-.6-2-.9-2.9-.6-1 .4-1.3.2-.8-.5 1-1.7 2.1-1.5 3.7.5zm5.8 5c.1 1.8-.3 3.3-.9 3.3-.5 0-.9-.3-.9-.8.1-.4.1-2.3-.1-4.2-.1-2.9-.3-3.2-1-1.5-.8 1.9-.9 1.9-.9-.2-.1-2.6 2.1-3.6 3.1-1.4.4.9.7 3.1.7 4.8zm-11.3-4.3c2.2 2.3 1.7 2.6-1.6 1-1.6-.9-3-1.7-3-2 0-1 3.3-.3 4.6 1zm-145.7.1c-.3.2-3 .7-6 .9-3 .2-8 .7-11.1 1-13.9 1.4-16.8 1.6-16.8.8 0-.4 3-.9 6.8-1.1 3.7-.1 8.5-.6 10.7-1.1 4.4-.9 17.1-1.3 16.4-.5zm137 4.3c.1.7-.3 1-.9.7-.5-.3-1-1.8-.9-3.3 0-2.4.1-2.5.9-.7.5 1.1.9 2.6.9 3.3zm16.1.4c0 1.2-2 .9-3.4-.5-2.1-2.1-.8-3.8 1.5-1.9 1 .9 1.9 2 1.9 2.4zM178 252c1.3.8 1.3 1-.2 1-.9 0-2-.5-2.3-1-.8-1.3.5-1.3 2.5 0zm-144 .4c0 .3-.4.8-1 1.1-.5.3-1 .1-1-.4 0-.6.5-1.1 1-1.1.6 0 1 .2 1 .4zm139.7.2c-.3.3-1.2.4-1.9.1-.8-.3-.5-.6.6-.6 1.1-.1 1.7.2 1.3.5zm33.3.4c-1.4.4-4.1.8-6 .8l-3.5-.1 4-.7c5.7-1 8.7-1 5.5 0zm-187.4 2.7c-.7.7-2.6-.7-2.6-1.9 0-.6.6-.6 1.5.2.9.7 1.3 1.5 1.1 1.7zM38 254c0 .5-.7 1-1.5 1s-1.5-.5-1.5-1c0-.6.7-1 1.5-1s1.5.4 1.5 1zm5.4-.1c.3.5 2.4.9 4.7.9 2.3.1 4.4.3 4.7.6.3.3-2.4.6-6 .6-5.1 0-6.5-.3-6.5-1.5 0-1.6 2.2-2.1 3.1-.6zm93.6.1c1.1.7.5.8-2 .4-4.3-.8-5.1-1.4-1.9-1.4 1.3 0 3.1.5 3.9 1zm31.5 0c-2.8 1.2-3.7 1.2-3 0 .3-.6 1.6-1 2.8-.9 2.1 0 2.1.1.2.9zm-108.6.4c-.2.2-1.7.6-3.4 1-2.2.5-2.6.4-1.5-.4 1.4-.9 5.9-1.5 4.9-.6zm215.8 3.3c.7.6.9 1.3.4 1.5-1 .4-2.3 6.8-1.3 6.8.5 0 1.3-.5 2-1.2.9-.9 1.2-.3 1.2 2.8 0 2.6-.3 3.4-.9 2.5-.5-.7-1.3-1.1-1.8-.8-.9.6-2.7-4.8-3.8-11.7-.6-3.7-.6-3.9 1.2-2.5 1 .8 2.4 1.9 3 2.6zm-250.2.1c-2.1.5-4.5-.5-4.5-1.7 0-.5 1.3-.4 3.1.2 2.1.8 2.6 1.3 1.4 1.5zm97.3-2.1c-1.6.2-4 .2-5.5 0-1.6-.2-.3-.4 2.7-.4s4.3.2 2.8.4zM70 258c-.8.5-1.9 1-2.5 1-.5 0-.3-.5.5-1s2-1 2.5-1c.6 0 .3.5-.5 1zm114.5 0c-.6 1-5.9 1.9-16.5 2.6-10.6.7-10-.3 1.1-2 10.3-1.5 16.1-1.7 15.4-.6zM31 259.1c0 .5.6.7 1.3.3.9-.5.9-.4 0 .6s-1.5 1-2.8-.4c-1.5-1.4-1.5-1.6-.1-1.6.9 0 1.6.5 1.6 1.1zm256-.1c0 .5-.2 1-.4 1-.3 0-.8-.5-1.1-1-.3-.6-.1-1 .4-1 .6 0 1.1.4 1.1 1zm-223.4.9c-.3.5-3.6 1.2-7.3 1.6-3.6.4-7.3 1-8.1 1.3-1 .3-1.3.1-.8-.6.4-.7 2.4-1.2 4.4-1.3 2-.1 4.8-.5 6.2-.9 3.5-1.1 6.2-1.2 5.6-.1zm-20.1 2.9c-.2.2-1.9.1-3.7-.3-2.8-.7-3-.9-1.3-1.5 1.8-.6 6 .9 5 1.8zm111.3-1.1c-1 .2-2.8.2-4 0-1.3-.2-.5-.4 1.7-.4 2.2-.1 3.2.1 2.3.4zm128.2 1.1c0 .5-.7.9-1.5.9s-1.5-.4-1.5-.9c0-.4.7-.8 1.5-.8s1.5.4 1.5.8zm4.3 8.1c-.1 4.3-1.5 11.1-2.5 11.7-.5.3-.7-1.7-.6-4.5.2-2.8.6-5.1.9-5.1.4 0 .3-1.7-.2-3.8-1.2-5.4-1.1-5.9.8-3.3.9 1.3 1.6 3.5 1.6 5zm-18.5 1.1c.4 0 .7 2.5.7 5.5 0 5.8-1.4 7.8-1.6 2.2-.1-1.7-.2-5-.4-7.2-.1-2.2 0-3.2.2-2.3.3 1 .8 1.8 1.1 1.8zm12.4.2c-.8.8-.9.4-.5-1.3.4-1.3.8-1.8 1.1-1 .2.7-.1 1.8-.6 2.3zm2.5-1c-.3.8-.6.5-.6-.6-.1-1.1.2-1.7.5-1.3.3.3.4 1.2.1 1.9zm-17.7 1c0 1.8-.2 2-.9.8-.6-.8-.7-1.8-.5-2.2.9-1.4 1.4-.9 1.4 1.4zm10.5 4.4c-.4 5.4-1.5 7.2-1.5 2.3 0-1.9-.3-4.4-.6-5.7-.5-1.7-.3-2.1.9-1.7 1.1.5 1.4 1.9 1.2 5.1zm3.5-1.5c0 .6-.4.7-1 .4-.5-.3-1-1.1-1-1.6 0-.6.5-.7 1-.4.6.3 1 1.1 1 1.6zm2.7 1.1c-.3.7-.5.2-.5-1.2s.2-1.9.5-1.3c.2.7.2 1.9 0 2.5zm-5 7.4c-.3.3-1.2.4-1.9.1-.8-.3-.5-.6.6-.6 1.1-.1 1.7.2 1.3.5zm5.3 2.1c0 2.1-.3 2.4-.9 1.4-.5-.8-.7-2-.4-2.8.8-2.1 1.3-1.5 1.3 1.4zm-4.7 4.4c.5.3.2.9-.7 1.2-1.2.5-1.6 0-1.6-1.5 0-1.2.3-1.7.8-1.2.4.5 1.1 1.2 1.5 1.5z"/><path d="M186 67.1c0 1.6.6 2.6 1.5 2.6 1.9 0 1.8-.7 0-3.1-1.4-1.9-1.5-1.9-1.5.5zM193 81.5c0 .5.4 1.6.9 2.3.6 1.1 1 1 1.5-.4.3-.9.4-1.9.1-2.2-.3-.3-.5.1-.5.9 0 1.1-.2 1.1-1-.1-.5-.8-1-1.1-1-.5zM177.7 79.3c-.8 2.1.8 3.9 2.9 3.5 1.1-.2 2-1.3 2.2-2.6.3-1.8-.1-2.2-2.1-2.2-1.4 0-2.7.6-3 1.3zM205 97.6c.1 1.9 2.7 5.6 3.3 4.7.4-.6-.2-2.1-1.3-3.3-1.1-1.3-2-1.9-2-1.4zM211 110.5c0 1.5.7 3.3 1.5 4.1.8.9 1.5 1.1 1.5.5 0-.5-.4-1.2-.9-1.5-.5-.3-.7-1.5-.4-2.5.3-1 0-2.2-.6-2.5-.7-.5-1.1.3-1.1 1.9zM216.6 118.6c-.8 2-.4 2.5 1.1 1.6.7-.4.9-1.3.4-2.1-.6-1-1-.9-1.5.5zM223 125c0 .5.5 1 1 1 .6 0 1-.5 1-1 0-.6-.4-1-1-1-.5 0-1 .4-1 1zM279.3 234.2c.1 1.5.6 2.3 1.1 1.8.4-.4.4-1.6-.2-2.6-.9-1.6-1-1.4-.9.8zM37 236.4c0 .9.5 1.6 1 1.6.6 0 1-.4 1-.9 0-.6-.4-1.3-1-1.6-.5-.3-1 .1-1 .9zM181.8 237.7c.7.3 1.6.2 1.9-.1.4-.3-.2-.6-1.3-.5-1.1 0-1.4.3-.6.6zM28 242.9c0 .9 2.4 2.1 4.1 2.1.5 0 .9-.4.9-1 0-.5-.7-.7-1.5-.4-.8.4-1.5.1-1.5-.5s-.4-1.1-1-1.1c-.5 0-1 .4-1 .9zM273.3 260.5c0 2.2.2 3 .4 1.7.2-1.2.2-3 0-4-.3-.9-.5.1-.4 2.3zM148 29c-.9 1.6-.8 2 .5 2 1.2 0 1.5.6 1 2.1-.4 1.3 0 2.7 1.1 4 1.8 2 4.4 2.6 4.4.9 0-.6-.7-1-1.5-1s-1.5-.5-1.5-1.1c0-.5-.4-.7-1-.4-.5.3-1 0-1-.9 0-.8.5-1.6 1.1-1.8.7-.2.5-1.1-.7-2.3-1.9-1.8-1.9-1.8.4-1.3 2.7.7 2.8.2.2-1.2-1.5-.8-2.1-.6-3 1zM153.7 42.7c-1.3 1.2-.7 2.3 1.3 2.3 1.3 0 1.8-.5 1.4-1.5-.7-1.6-1.7-1.9-2.7-.8zM166 44c0 .5.5 1 1.1 1 .5 0 .7-.5.4-1-.3-.6-.8-1-1.1-1-.2 0-.4.4-.4 1zM159.1 52.6c0 1.1.3 1.4.6.6.3-.7.2-1.6-.1-1.9-.3-.4-.6.2-.5 1.3zM203.2 205.2c.1 1.6.6 2.8 1 2.8 1.1 0 1-2.2-.2-4-.8-1.1-.9-.9-.8 1.2zM212.5 217c.3.5.8 1 1.1 1 .2 0 .4-.5.4-1 0-.6-.5-1-1.1-1-.5 0-.7.4-.4 1z"/></svg>