<?xml version="1.0" standalone="no"?>
<!DOCTYPE svg PUBLIC "-//W3C//DTD SVG 20010904//EN"
 "http://www.w3.org/TR/2001/REC-SVG-20010904/DTD/svg10.dtd">
<svg version="1.0" xmlns="http://www.w3.org/2000/svg"
 width="512.000000pt" height="512.000000pt" viewBox="0 0 512.000000 512.000000"
 preserveAspectRatio="xMidYMid meet">
<metadata>
Created by potrace 1.14, written by Peter Selinger 2001-2017
</metadata>
<g transform="translate(0.000000,512.000000) scale(0.100000,-0.100000)"
fill="#000000" stroke="none">
<path d="M1018 5115 c-2 -2 -28 -6 -58 -10 -30 -4 -91 -18 -137 -31 -352 -102
-644 -380 -759 -721 -14 -43 -28 -87 -30 -98 -2 -11 -10 -53 -18 -93 -18 -95
-14 -302 9 -407 83 -390 349 -700 719 -839 155 -59 239 -68 616 -70 l345 -2 0
-284 0 -284 -345 -2 c-311 -1 -355 -4 -449 -23 -464 -97 -816 -462 -895 -930
-14 -85 -15 -284 -1 -371 44 -273 212 -547 443 -724 102 -77 293 -168 405
-191 10 -2 26 -6 35 -9 38 -12 104 -18 227 -20 552 -13 1025 376 1131 929 14
73 17 153 18 431 l1 341 285 -1 284 -1 2 -350 c2 -319 4 -359 24 -448 90 -409
368 -719 764 -851 182 -61 406 -69 625 -22 60 13 162 52 237 91 252 130 452
352 547 605 81 215 94 425 42 684 -33 164 -161 390 -295 521 -96 94 -87 86
-165 139 -109 75 -226 130 -345 161 -135 35 -208 40 -561 40 l-305 0 0 285 1
284 345 2 c311 1 355 4 448 23 527 110 895 551 907 1086 5 201 -28 353 -115
530 -87 176 -225 334 -385 440 -105 69 -167 100 -277 136 -84 27 -105 32 -183
45 -66 11 -274 11 -345 -1 -255 -41 -472 -154 -647 -336 -167 -173 -276 -400
-309 -639 -4 -30 -8 -203 -8 -385 l-2 -330 -284 0 -284 0 -2 345 c-2 377 -11
460 -70 616 -87 233 -264 450 -466 573 -109 66 -285 135 -376 147 -26 3 -51 9
-56 12 -10 6 -282 12 -288 7z m301 -594 c190 -66 338 -236 375 -428 8 -47 12
-165 12 -373 l-1 -305 -305 -1 c-212 0 -326 3 -374 12 -168 32 -320 150 -395
306 -49 103 -65 183 -58 290 10 139 58 248 155 350 71 75 137 117 237 150 70
23 93 26 185 24 78 -2 122 -8 169 -25z m2848 -1 c322 -112 475 -485 324 -790
-36 -72 -41 -79 -113 -151 -66 -65 -134 -107 -228 -140 -62 -21 -82 -22 -401
-24 l-336 -2 2 326 c2 357 4 377 62 500 64 135 216 257 369 296 82 21 239 13
321 -15z m-1322 -1960 l0 -285 -278 0 c-178 0 -281 3 -285 10 -4 5 -7 134 -7
285 l0 275 285 0 285 0 0 -285z m-1140 -1179 c-2 -179 -5 -337 -9 -351 -3 -14
-8 -35 -11 -48 -11 -61 -82 -179 -145 -242 -117 -118 -233 -165 -405 -165 -97
0 -120 3 -189 29 -75 28 -184 99 -228 149 -162 185 -192 441 -76 659 38 72
133 173 201 212 55 33 144 65 200 73 23 3 43 6 45 7 1 2 141 3 311 3 l308 -1
-2 -325z m2410 309 c191 -48 344 -191 408 -380 33 -100 33 -251 -1 -351 -56
-164 -184 -295 -349 -355 -68 -25 -92 -29 -188 -29 -126 0 -192 17 -290 74
-133 77 -243 230 -271 376 -11 60 -13 669 -2 676 19 12 641 3 693 -11z"/>
</g>
</svg>
